<svg width="24" height="24" viewBox="0 0 24 24" fill="none" xmlns="http://www.w3.org/2000/svg">
<path d="M16.6551 15.2182C16.6616 15.2748 16.6526 15.3331 16.6282 15.3932C16.6031 15.4481 16.5701 15.5013 16.5291 15.5529C16.4875 15.5993 16.4401 15.6411 16.387 15.6784C16.3333 15.7106 16.2808 15.7296 16.2293 15.7354C16.1933 15.7395 16.157 15.7411 16.1204 15.74C16.0837 15.739 16.0474 15.7405 16.0114 15.7446C15.9651 15.7499 15.936 15.7688 15.924 15.8014C15.9115 15.8289 15.8993 15.8589 15.8874 15.8915C15.8806 15.9235 15.8658 15.9539 15.843 15.9825C15.8208 16.0163 15.7763 16.037 15.7094 16.0446C15.6682 16.0493 15.6239 16.0491 15.5764 16.0441C15.5289 16.0391 15.482 16.0392 15.4357 16.0445C15.3379 16.0556 15.2448 16.0844 15.1562 16.131C15.0734 16.1821 14.9806 16.2135 14.8777 16.2252C14.7902 16.2351 14.6572 16.2346 14.4787 16.2237C14.3008 16.2179 14.1183 16.1944 13.9311 16.1532C13.7497 16.1166 13.5874 16.0648 13.4442 15.9977C13.3005 15.9256 13.2221 15.8329 13.2092 15.7198C13.1993 15.6324 13.2382 15.5394 13.326 15.4409C13.4184 15.3367 13.5201 15.2235 13.6313 15.1015C13.7419 14.9743 13.8382 14.8358 13.9202 14.6858C14.0073 14.5353 14.0403 14.3675 14.0192 14.1824C14.0068 14.0744 13.9717 13.9717 13.9136 13.8741C13.8607 13.776 13.7958 13.687 13.719 13.6072C13.6415 13.5223 13.5547 13.4463 13.4584 13.3791C13.3672 13.3114 13.2793 13.2485 13.1945 13.1904C13.1676 13.1831 13.1284 13.1823 13.0769 13.1882C12.938 13.204 12.8008 13.2352 12.6654 13.2819C12.5293 13.3234 12.3919 13.3521 12.2529 13.3679C12.1809 13.3761 12.1051 13.3743 12.0255 13.3625C11.9511 13.3502 11.8964 13.3043 11.8613 13.225C11.7351 13.307 11.6086 13.3865 11.4819 13.4635C11.3545 13.5352 11.224 13.6022 11.0903 13.6643C11.0064 13.7051 10.9447 13.7355 10.9053 13.7556C10.871 13.7752 10.8448 13.7964 10.8265 13.8193C10.8134 13.8416 10.8041 13.8739 10.7985 13.9162C10.798 13.9579 10.7867 14.0191 10.7647 14.0997C10.7499 14.1535 10.7449 14.2009 10.7496 14.2421C10.7543 14.2832 10.7596 14.3295 10.7654 14.3809C10.7731 14.4477 10.7664 14.5032 10.7453 14.5472C10.7237 14.5861 10.6995 14.6254 10.6727 14.6649C10.6505 14.6986 10.6286 14.735 10.607 14.7739C10.5853 14.8128 10.5777 14.8605 10.5842 14.9171C10.5895 14.9634 10.6019 15.0036 10.6214 15.0379L10.6181 15.0773C10.6269 15.1544 10.6545 15.2138 10.701 15.2553C10.7468 15.2918 10.7995 15.3196 10.8591 15.3389C10.9232 15.3524 10.9898 15.3657 11.0591 15.3786C11.1283 15.3916 11.1904 15.4106 11.2454 15.4356C11.3004 15.4605 11.3551 15.5064 11.4097 15.5731C11.4687 15.6341 11.521 15.7036 11.5664 15.7818C11.6164 15.8542 11.6589 15.9301 11.694 16.0094C11.7285 16.0836 11.749 16.149 11.7555 16.2056L11.7599 16.2441L11.6595 16.2555C11.4537 16.279 11.249 16.3127 11.0455 16.3567C10.8465 16.3949 10.6479 16.4358 10.4495 16.4792C10.2518 16.5277 10.0508 16.5714 9.84676 16.6103C9.64841 16.6537 9.44631 16.6871 9.24046 16.7106C9.16841 16.7188 9.06262 16.7282 8.92309 16.7389C8.78871 16.7489 8.65315 16.7488 8.51642 16.7383C8.38027 16.7329 8.2578 16.7104 8.14902 16.6707C8.04479 16.6253 7.98682 16.5512 7.97509 16.4483C7.96278 16.3404 7.97568 16.2478 8.01378 16.1705C8.05704 16.0927 8.11462 16.0262 8.18654 15.9712C8.26301 15.9104 8.34838 15.859 8.44264 15.817C8.54146 15.7693 8.638 15.7245 8.73226 15.6825C8.83166 15.64 8.92335 15.5983 9.00732 15.5575C9.09643 15.5161 9.16893 15.4662 9.22482 15.4077C9.28071 15.3493 9.3228 15.2612 9.35107 15.1434C9.37875 15.0204 9.39784 14.8907 9.40832 14.7541C9.41881 14.6175 9.42702 14.4837 9.43295 14.3529C9.43829 14.2169 9.44428 14.1094 9.45092 14.0305C9.45314 14.0042 9.45219 13.9731 9.44809 13.9371C9.44855 13.8954 9.44643 13.854 9.44174 13.8128C9.4422 13.7711 9.44037 13.7323 9.43627 13.6963C9.43731 13.6597 9.4421 13.6331 9.45063 13.6165C9.49213 13.5233 9.52486 13.4675 9.54883 13.4491C9.57795 13.4302 9.59707 13.415 9.60619 13.4035C9.62045 13.3915 9.62524 13.3649 9.62055 13.3238C9.62042 13.2769 9.61244 13.1841 9.59661 13.0453C9.58958 12.9836 9.59716 12.9358 9.61938 12.9021C9.641 12.8631 9.66322 12.8294 9.68602 12.8007C9.71396 12.7715 9.73963 12.7452 9.76301 12.7217C9.78581 12.693 9.79487 12.6581 9.79018 12.617C9.78197 12.545 9.75406 12.4831 9.70644 12.4312C9.65823 12.3742 9.63003 12.3097 9.62182 12.2378C9.61713 12.1966 9.62332 12.1595 9.64038 12.1263C9.65745 12.0931 9.67738 12.0622 9.70018 12.0336C9.72813 12.0043 9.75093 11.9757 9.76858 11.9476C9.78565 11.9145 9.79184 11.8773 9.78715 11.8362C9.7807 11.7796 9.76138 11.7245 9.7292 11.6709C9.70217 11.6167 9.68543 11.5613 9.67898 11.5048C9.67429 11.4636 9.68393 11.4339 9.7079 11.4155C9.73643 11.3915 9.76555 11.3725 9.79525 11.3587C9.8301 11.3443 9.8601 11.3331 9.88525 11.325C9.91495 11.3112 9.92892 11.2966 9.92717 11.2812C9.90821 11.2521 9.87815 11.2399 9.83698 11.2446C9.77522 11.2516 9.74816 11.2886 9.75578 11.3554C9.71682 11.3338 9.68272 11.309 9.65347 11.2811C9.62364 11.248 9.60638 11.211 9.60169 11.1698C9.59582 11.1184 9.60341 11.0707 9.62445 11.0266C9.64491 10.9774 9.66735 10.9228 9.69178 10.8627C9.72135 10.8021 9.7449 10.7343 9.76242 10.6594C9.77994 10.5845 9.78284 10.4956 9.77112 10.3928C9.75881 10.2848 9.73164 10.1837 9.68962 10.0896C9.64702 9.99027 9.61986 9.8892 9.60813 9.78638C9.60227 9.73496 9.6067 9.68238 9.62142 9.62862C9.64129 9.57428 9.66402 9.52222 9.68962 9.47243C9.71978 9.41692 9.74766 9.36427 9.77326 9.31449C9.80342 9.25898 9.823 9.20206 9.83199 9.14375C9.85173 9.04256 9.85544 8.93797 9.84313 8.83001C9.83596 8.72146 9.82622 8.6132 9.81391 8.50523C9.80674 8.39668 9.80244 8.29041 9.80101 8.18641C9.80414 8.07669 9.82616 7.97262 9.86706 7.87423C9.904 7.78669 9.9324 7.71576 9.95227 7.66142C9.97214 7.60708 9.98972 7.5556 10.005 7.50698C10.0198 7.45323 10.0316 7.3972 10.0406 7.33889C10.049 7.27543 10.0554 7.19399 10.0597 7.09455C10.0684 6.94252 10.0906 6.79417 10.1262 6.6495C10.167 6.50425 10.1892 6.3559 10.1927 6.20446C10.1901 6.09018 10.1844 5.99448 10.1756 5.91737C10.1714 5.83452 10.1761 5.76108 10.1896 5.69704C10.2083 5.63242 10.2433 5.57375 10.2946 5.52103C10.3511 5.46773 10.4385 5.41092 10.5567 5.35059C10.6852 5.28909 10.8155 5.24302 10.9476 5.21236C11.079 5.17657 11.2116 5.15106 11.3454 5.13583C11.4998 5.11826 11.6602 5.10781 11.8267 5.10449C11.8521 5.19014 11.8946 5.26602 11.9543 5.33214C12.0134 5.39312 12.075 5.4538 12.1392 5.5142C12.2086 5.574 12.2731 5.63697 12.3328 5.70309C12.397 5.76348 12.4444 5.83621 12.475 5.92126C12.5142 6.03658 12.5425 6.14793 12.56 6.25531C12.582 6.35697 12.6375 6.45481 12.7264 6.54885C12.7689 6.60131 12.7945 6.66609 12.8033 6.74321C12.8168 6.86146 12.8142 6.97632 12.7957 7.0878C12.7771 7.19928 12.7743 7.31158 12.7872 7.42468C12.7948 7.49152 12.828 7.59971 12.8868 7.74927C12.9455 7.89882 13.0135 8.06034 13.0906 8.23384C13.1671 8.4022 13.2408 8.56828 13.3116 8.73209C13.3818 8.89075 13.4351 9.01489 13.4714 9.1045C13.54 9.2946 13.586 9.49247 13.6094 9.69812C13.638 9.90318 13.6943 10.0999 13.7784 10.2882C13.8636 10.4868 13.9411 10.6863 14.0108 10.8867C14.08 11.082 14.1346 11.2867 14.1747 11.5008C14.2079 11.7002 14.2559 11.8926 14.3187 12.0782C14.381 12.2586 14.4461 12.4412 14.5142 12.6262C14.5816 12.806 14.6441 12.989 14.7019 13.1751C14.7647 13.3606 14.8079 13.5562 14.8313 13.7619C14.8401 13.839 14.8415 13.9196 14.8354 14.0036C14.8345 14.087 14.8093 14.1628 14.7597 14.2309C14.8824 14.3472 15.0192 14.4722 15.17 14.6061C15.326 14.7394 15.4758 14.8421 15.6196 14.9143C15.6746 14.9392 15.757 14.9533 15.8668 14.9564C15.9766 14.9596 16.087 14.9678 16.198 14.9812C16.3136 14.9889 16.4152 15.0112 16.5028 15.0481C16.595 15.0793 16.6457 15.136 16.6551 15.2182ZM12.9468 11.4297C12.9415 11.3834 12.9167 11.3263 12.8725 11.2585C12.8277 11.1854 12.7768 11.1053 12.72 11.018C12.6682 10.9302 12.6182 10.8343 12.5699 10.7304C12.5215 10.6266 12.4906 10.5155 12.4771 10.3973C12.4613 10.2585 12.4252 10.1246 12.3688 9.99556C12.3118 9.86144 12.2677 9.72585 12.2364 9.58879C12.2132 9.47685 12.1863 9.35493 12.1556 9.22301C12.1295 9.08537 12.0891 8.95977 12.0344 8.84621C11.9792 8.7275 11.9034 8.63457 11.8071 8.56741C11.7154 8.49452 11.5898 8.46716 11.4303 8.48531C11.4247 8.52761 11.4102 8.56051 11.3868 8.584C11.3628 8.60236 11.3337 8.6213 11.2994 8.64082C11.2697 8.65462 11.2374 8.66871 11.2026 8.68309C11.1677 8.69747 11.1415 8.71869 11.1238 8.74674C11.1307 8.76157 11.136 8.78442 11.1395 8.81526C11.15 8.90781 11.1394 8.99755 11.1076 9.0845C11.0804 9.16571 11.056 9.24921 11.0345 9.33498C11.0085 9.42649 10.9933 9.52196 10.989 9.6214C10.9893 9.71511 10.9947 9.80824 11.0052 9.90078C11.0146 9.98304 11.0263 10.0624 11.0402 10.139C11.0541 10.2155 11.0655 10.2923 11.0743 10.3694C11.0878 10.4877 11.0892 10.5917 11.0786 10.6814C11.0674 10.766 11.053 10.8458 11.0355 10.9207C11.018 10.9956 11.0027 11.0676 10.9898 11.1368C10.9762 11.2009 10.9736 11.2689 10.9818 11.3408C10.9994 11.4951 11.0197 11.6282 11.0429 11.7401C11.0661 11.852 11.1001 11.9445 11.145 12.0175C11.1892 12.0854 11.2471 12.1361 11.3187 12.1696C11.3897 12.198 11.4844 12.2055 11.6027 12.192C11.6851 12.1826 11.8023 12.1589 11.9543 12.1207C12.1115 12.082 12.2646 12.0307 12.4137 11.9669C12.5674 11.8973 12.6965 11.8175 12.8009 11.7275C12.9104 11.6369 12.9591 11.5376 12.9468 11.4297Z" fill="#9B401B"/>
<path fill-rule="evenodd" clip-rule="evenodd" d="M10.2858 0.0411567C9.16695 0.170517 7.33482 0.789237 6.19562 1.42251C4.25323 2.50227 2.50171 4.24434 1.48373 6.10901C0.967037 7.05551 0.695731 7.75307 0.276013 9.2143C-0.0879807 10.4813 -0.0927502 13.2143 0.266395 14.6841C0.854794 17.0919 1.80886 18.8128 3.48844 20.4956C4.19536 21.2039 4.8383 21.7328 5.46811 22.1237C6.04244 22.4802 6.7744 22.8916 6.96033 22.9623C7.08402 23.0094 7.29317 23.0979 7.42497 23.159C7.88514 23.3722 8.94263 23.683 9.73143 23.8368C10.7658 24.0386 13.2911 24.0574 14.1673 23.8699C15.612 23.5608 16.1941 23.367 17.3229 22.8193C19.7325 21.6502 21.6431 19.7361 22.8315 17.3006C23.725 15.4693 24.0003 14.2275 24 12.0301C23.9997 10.5136 23.8872 9.55934 23.6048 8.67665C23.3354 7.83509 23.2586 7.61862 23.1183 7.30604C23.035 7.12051 22.9668 6.9458 22.9668 6.91771C22.9668 6.79782 22.1046 5.36714 21.702 4.81899C20.814 3.60995 19.4732 2.38405 18.2768 1.6876C17.9926 1.5222 17.7065 1.35354 17.6409 1.31273C17.1362 0.999189 15.849 0.52423 14.7219 0.235755C14.0551 0.065024 13.724 0.0324054 12.3944 0.00662874C11.5419 -0.00991924 10.593 0.00559449 10.2858 0.0411567ZM13.8658 0.518741C17.6842 1.1875 20.8277 3.54416 22.4671 6.96704C23.7874 9.72379 23.9707 12.7012 23.0084 15.7582C22.8698 16.1986 21.9808 18.043 21.8303 18.2027C21.7777 18.2584 21.5966 18.5188 21.4276 18.7813C21.0142 19.4242 19.3329 21.0677 18.5514 21.5931C16.5783 22.9194 14.3383 23.6066 11.9969 23.604C10.2127 23.6021 8.62641 23.2386 6.98895 22.4565C3.59019 20.8332 1.2133 17.6671 0.551453 13.8815C0.0185386 10.833 0.808768 7.63604 2.74241 5.01788C3.29083 4.27529 4.73885 2.88558 5.47821 2.39224C7.99238 0.714612 11.0655 0.0281888 13.8658 0.518741ZM9.85066 0.736092C8.55749 1.02584 7.96861 1.23245 6.81916 1.79946C5.73608 2.33369 4.91723 2.9349 3.93869 3.91426C2.21609 5.63827 1.2862 7.38893 0.753601 9.91067C0.562025 10.8175 0.580467 13.23 0.786431 14.2173C1.12093 15.8203 1.86728 17.5597 2.69638 18.6684C3.45164 19.6785 4.09775 20.3554 4.84267 20.9171C5.08313 21.0984 5.29776 21.2672 5.31962 21.2922C5.54482 21.5499 6.92544 22.2909 7.90311 22.6789C11.7477 24.2042 16.3488 23.4051 19.4883 20.6668C23.0364 17.572 24.3552 12.6691 22.8309 8.23996C22.6443 7.69786 21.8341 6.01235 21.76 6.01235C21.7242 6.01235 21.695 5.97273 21.695 5.92428C21.695 5.80271 20.6776 4.46074 20.2536 4.02293C19.9631 3.72292 19.5014 3.32267 18.7416 2.71174C18.2348 2.30433 17.156 1.71497 16.2895 1.37215C14.7061 0.745639 13.8715 0.600208 11.9247 0.611346C10.8817 0.617313 10.1967 0.658523 9.85066 0.736092ZM14.024 1.05528C14.4175 1.12569 15.0971 1.30222 15.5343 1.4475C16.3347 1.71354 17.7829 2.40815 18.0781 2.66759C18.1655 2.74444 18.4517 2.95257 18.714 3.13014C19.2678 3.50493 20.4722 4.71636 21.007 5.43643C21.2105 5.71043 21.377 5.95157 21.377 5.97225C21.377 5.99302 21.4888 6.19191 21.6256 6.41427C21.9795 6.98987 22.5213 8.25396 22.7225 8.9734C23.4198 11.4663 23.2127 14.2835 22.1694 16.4976C22.0396 16.7731 21.9334 17.0137 21.9334 17.0323C21.9334 17.147 21.142 18.3727 20.7128 18.9229C19.059 21.0422 16.3731 22.5986 13.6663 23.0059C12.9094 23.1199 10.9632 23.1755 10.8207 23.0874C10.7886 23.0676 10.4946 23.014 10.1674 22.9685C9.19549 22.8331 7.89667 22.3979 6.92742 21.883C5.01485 20.8669 3.64441 19.5654 2.40044 17.5837C1.88469 16.762 1.30989 15.2201 1.07499 14.0279C0.873157 13.0035 0.887783 10.8437 1.10345 9.83111C1.38516 8.50863 1.44272 8.34752 2.13287 6.95017C3.182 4.82599 4.92908 3.10134 7.11081 2.03614C8.25613 1.47693 8.15566 1.51965 8.69898 1.35974C10.4034 0.858133 12.3122 0.74898 14.024 1.05528ZM11.7888 1.17453C11.7566 1.22664 11.7725 1.28337 11.8239 1.30047C11.8835 1.32036 11.9175 1.52912 11.9175 1.87536C11.9175 2.22159 11.8835 2.43035 11.8239 2.45024C11.6177 2.51898 11.8684 2.67093 12.188 2.67093C12.6246 2.67093 12.8041 2.48166 12.8476 1.9756C12.8721 1.69102 12.8399 1.53262 12.7179 1.33834C12.5745 1.10961 12.5148 1.07978 12.2016 1.07978C12.0067 1.07978 11.821 1.12242 11.7888 1.17453ZM10.537 1.40422C10.5093 1.54296 10.4866 1.85976 10.4866 2.10806C10.4866 2.35636 10.4437 2.60251 10.3912 2.65502C10.317 2.72925 10.3527 2.75049 10.5517 2.75049C10.7849 2.75049 10.8032 2.73291 10.7577 2.5516C10.7158 2.38421 10.7358 2.3527 10.8841 2.3527C11.0323 2.3527 11.0523 2.38421 11.0104 2.5516C10.9712 2.70785 10.9907 2.75025 11.1012 2.7493C11.1785 2.74858 11.2954 2.71278 11.361 2.66974C11.4668 2.60021 11.4668 2.58278 11.3614 2.51492C11.296 2.47291 11.1529 2.15962 11.0434 1.81879C10.8219 1.12935 10.6243 0.967525 10.537 1.40422ZM13.5435 1.43421C13.3804 1.5973 13.3483 1.70661 13.3483 2.09812C13.3483 2.62161 13.4881 2.83005 13.8391 2.83005C14.0565 2.83005 14.2184 2.67626 14.3664 2.32907C14.5069 1.99931 14.4819 1.6845 14.2964 1.44853C14.088 1.18321 13.7997 1.17772 13.5435 1.43421ZM12.6002 1.5969C12.69 1.95515 12.4989 2.43226 12.2655 2.43226C12.1837 2.43226 12.1559 2.30131 12.1559 1.91514C12.1559 1.41766 12.1634 1.39801 12.3532 1.39801C12.4972 1.39801 12.5638 1.45163 12.6002 1.5969ZM8.81727 1.57813C8.5299 1.70805 8.52458 1.71847 8.68531 1.83613C8.85733 1.96199 9.00058 2.42995 8.99565 2.84994C8.99374 3.01406 9.00113 3.14828 9.0121 3.14828C9.12117 3.14828 9.60289 2.94023 9.71155 2.8462C9.86171 2.71628 9.90082 2.31356 9.77117 2.23337C9.72745 2.20632 9.69168 2.08149 9.69168 1.95587C9.69168 1.53016 9.29891 1.36046 8.81727 1.57813ZM14.1787 1.78402C14.2381 2.06526 14.1282 2.43974 13.9553 2.54547C13.7544 2.66847 13.4776 2.32494 13.5475 2.03948C13.6809 1.49563 14.0834 1.33269 14.1787 1.78402ZM9.42681 1.98849C9.36242 2.15651 9.08603 2.14864 9.02021 1.97687C8.94199 1.77305 9.20765 1.59547 9.36107 1.7491C9.42371 1.81171 9.45328 1.91951 9.42681 1.98849ZM10.8829 2.01458C10.8835 2.06932 10.8483 2.11403 10.8046 2.11403C10.7608 2.11403 10.7256 2.01554 10.7263 1.89525C10.7272 1.72475 10.7446 1.7028 10.8046 1.7958C10.8469 1.86143 10.8822 1.95993 10.8829 2.01458ZM7.45152 2.07711C7.15565 2.2379 7.11208 2.44889 7.29237 2.84779C7.52958 3.37255 7.75581 3.5716 8.04866 3.51297C8.37474 3.44765 8.43292 3.34009 8.39381 2.87476C8.36615 2.54619 8.31376 2.43878 8.07346 2.21841C7.74834 1.92015 7.74269 1.91887 7.45152 2.07711ZM8.01122 2.43862C8.17545 2.61508 8.27036 2.95137 8.20438 3.12338C8.16058 3.23754 7.88037 3.26149 7.72735 3.16419C7.67441 3.13046 7.57266 2.96299 7.5012 2.79194C7.3791 2.49933 7.37981 2.47474 7.51336 2.37705C7.71153 2.23193 7.83276 2.24697 8.01122 2.43862ZM9.69168 2.5516C9.69168 2.6652 9.45948 2.83005 9.29947 2.83005C9.18007 2.83005 9.19342 2.37363 9.31409 2.33027C9.45607 2.27935 9.69168 2.41738 9.69168 2.5516ZM16.9134 2.65104C16.803 2.77141 16.6328 2.98614 16.5354 3.12839C16.4379 3.27064 16.304 3.38695 16.2378 3.38695C16.0769 3.38695 16.1374 3.54463 16.3535 3.68815C16.5147 3.79532 16.528 3.79134 16.528 3.63533C16.528 3.52124 16.578 3.46651 16.6823 3.46651C16.894 3.46651 16.9584 3.59929 16.7917 3.69261C16.6762 3.75737 16.6712 3.78919 16.7601 3.89636C16.9045 4.07051 17.1071 4.06208 17.0523 3.88418C17.0287 3.80765 17.0977 3.49435 17.2056 3.18806C17.3134 2.88176 17.4018 2.58644 17.4021 2.53171C17.4026 2.35636 17.1206 2.42526 16.9134 2.65104ZM6.07241 2.87778C5.60857 3.1186 5.41652 3.38695 5.70802 3.38695C5.80007 3.38695 5.90691 3.49022 5.98481 3.65442C6.05452 3.80152 6.1682 3.96899 6.23743 4.02643C6.31764 4.0931 6.34642 4.19788 6.31685 4.31586C6.26335 4.5294 6.39085 4.5574 6.6213 4.38269C6.76765 4.27187 6.74857 3.96605 6.60103 4.0573C6.49562 4.12246 6.32806 3.88506 6.38139 3.74599C6.45135 3.56341 6.63704 3.60168 6.78609 3.82937C6.8752 3.96541 6.97727 4.02492 7.09333 4.00837C7.32171 3.97584 7.33975 3.65896 7.11216 3.67909C6.93434 3.69484 6.67098 3.42649 6.67098 3.22951C6.67098 3.15631 6.58935 3.01971 6.48958 2.92591C6.31947 2.76592 6.29356 2.76298 6.07241 2.87778ZM10.2084 3.09649C8.09294 3.58489 6.85032 4.28285 5.37598 5.81083C4.27271 6.95423 3.57104 8.30377 3.12032 10.1493C2.91403 10.994 2.9165 12.8871 3.12509 13.7692C3.33765 14.6686 3.53041 15.2336 3.85109 15.8976C4.7057 17.6671 5.99324 19.0084 7.72131 19.9297C9.03865 20.6319 9.94256 20.8774 11.4405 20.9394C12.9044 21 13.8082 20.8953 14.8189 20.5478C16.1935 20.0753 17.2445 19.4459 18.2261 18.5073C19.4085 17.3767 20.1397 16.1423 20.7323 14.2759C21.0222 13.363 21.0493 10.7866 20.7788 9.8662C20.257 8.09055 19.8137 7.24135 18.6965 5.87686C18.4127 5.53023 17.2472 4.56464 16.7474 4.26192C15.3273 3.40207 13.9235 2.99664 12.1957 2.94716C11.1552 2.91732 10.902 2.93634 10.2084 3.09649ZM17.028 3.06872C17.0051 3.15623 16.9313 3.22783 16.8641 3.22783C16.7612 3.22783 16.7647 3.20254 16.8857 3.06872C16.9648 2.98121 17.0386 2.9096 17.0495 2.9096C17.0606 2.9096 17.0508 2.98121 17.028 3.06872ZM6.41661 3.16506C6.42973 3.23277 6.38108 3.34757 6.30842 3.4202C6.18537 3.54336 6.16931 3.54264 6.07201 3.40994C5.98449 3.29053 5.98815 3.24486 6.09491 3.12648C6.23934 2.96625 6.38132 2.98327 6.41661 3.16506ZM18.131 3.16817C18.1786 3.40286 17.7268 3.99175 17.4034 4.11665L17.2055 4.19303L17.4034 4.34498C17.6246 4.515 17.7708 4.50593 17.7392 4.32414C17.7012 4.10575 17.926 3.99636 18.2096 4.09533C18.4317 4.17282 18.487 4.16216 18.6485 4.01028C18.9034 3.77058 18.8804 3.60398 18.5523 3.31567C18.2576 3.05671 18.097 3.00046 18.131 3.16817ZM12.9111 3.42689C13.5423 3.47311 14.428 3.66755 14.8984 3.86318C16.3168 4.4531 17.2228 5.05034 18.1274 5.99174C19.3666 7.28137 20.0578 8.58238 20.4207 10.3085C20.704 11.6562 20.6074 13.2107 20.1469 14.7117C20.0197 15.1265 19.5072 16.1846 19.3703 16.3151C19.3147 16.3681 19.2995 16.3681 19.3247 16.3151C19.9258 15.0485 20.0071 14.8383 20.2627 13.8901C20.495 13.0285 20.4921 11.0548 20.2573 10.1C19.9576 8.88167 19.3596 7.59554 18.7383 6.83322C18.4925 6.53146 17.5045 5.54741 17.178 5.27899C15.8877 4.21841 13.8986 3.54909 12.0367 3.54893C9.80655 3.54869 7.79921 4.3383 6.1589 5.86095C5.26843 6.68747 4.30697 8.22811 3.95419 9.39355C3.42946 11.1272 3.45235 13.1826 4.01365 14.7243C4.12501 15.0304 4.23821 15.3524 4.26508 15.4399C4.35562 15.7346 4.98766 16.7436 5.42232 17.2872C6.35341 18.4518 7.45263 19.2788 8.78293 19.8155C10.0687 20.3343 10.6447 20.4305 12.2834 20.3998C13.2272 20.3822 13.667 20.398 13.5263 20.4446C13.4066 20.4843 12.7362 20.5201 12.0367 20.5241C11.069 20.5299 10.6222 20.4976 10.1686 20.3892C8.46862 19.9832 7.18069 19.2635 5.94936 18.0315C4.43241 16.5138 3.60744 14.7902 3.43328 12.7747C3.24782 10.6292 3.77056 8.70307 5.01612 6.9423C6.13314 5.36332 7.81694 4.20114 9.81092 3.63294C10.3267 3.486 11.8031 3.30349 12.0764 3.3529C12.142 3.36475 12.5176 3.39809 12.9111 3.42689ZM18.5144 3.58481C18.6146 3.70566 18.5742 3.94385 18.4535 3.94385C18.4167 3.94385 18.3186 3.89405 18.2354 3.83311C18.1069 3.73907 18.1 3.70319 18.1902 3.59444C18.3218 3.43572 18.3891 3.43373 18.5144 3.58481ZM4.65046 4.02834C4.37025 4.27457 4.26214 4.53552 4.47398 4.45421C4.59267 4.40863 5.31716 5.11383 5.31867 5.27644C5.31994 5.4093 5.36692 5.4019 5.55722 5.23889C5.76175 5.06355 5.75905 4.99544 5.54633 4.96378C5.28711 4.92512 5.18242 4.70625 5.34522 4.54332C5.58632 4.30202 5.46414 3.93502 5.10754 3.82929C4.9817 3.79198 4.85833 3.84568 4.65046 4.02834ZM13.3881 3.98498C13.7378 4.04298 14.2084 4.14275 14.4338 4.20679C15.3682 4.47235 16.7709 5.29585 17.6119 6.07273C18.0371 6.46543 19.0717 7.79006 19.0717 7.94154C19.0717 7.98935 19.1201 8.08506 19.1792 8.15412C19.357 8.36184 19.7983 9.5105 19.9589 10.1835C20.1761 11.0933 20.1708 12.9186 19.9483 13.8398C19.2128 16.8852 16.8868 19.2024 13.8253 19.9399C12.8963 20.1636 11.121 20.1683 10.2084 19.9495C9.53055 19.787 8.383 19.3456 8.17505 19.1674C8.10605 19.1082 8.01225 19.0598 7.96662 19.0598C7.82576 19.0598 6.50818 18.0398 6.13815 17.6442C5.94546 17.4382 5.67519 17.1086 5.53759 16.9117C5.39999 16.7148 5.24935 16.5147 5.20285 16.4672C5.04076 16.3013 4.35665 14.8638 4.23702 14.4374C3.74608 12.6888 3.77827 10.9613 4.33241 9.31399C4.96207 7.4424 6.35421 5.82897 8.26082 4.76139C9.02744 4.33209 10.6054 3.90312 11.6392 3.84305C12.0872 3.81696 12.6495 3.86262 13.3881 3.98498ZM5.21374 4.14895C5.24021 4.21793 5.20332 4.33305 5.13178 4.40465C5.01127 4.52518 4.99203 4.52518 4.87152 4.40465C4.70904 4.24195 4.78361 4.02341 5.00165 4.02341C5.09188 4.02341 5.18727 4.0799 5.21374 4.14895ZM19.3102 4.22938C19.3102 4.4037 18.7523 4.9781 18.5831 4.9781C18.3573 4.9781 18.3313 5.13093 18.5291 5.29593C18.7602 5.4887 18.8325 5.49347 18.8358 5.31622C18.8372 5.23961 18.8831 5.11812 18.9378 5.04612C19.0242 4.93251 19.0573 4.92989 19.189 5.02623C19.5401 5.2832 20.0016 5.05296 19.9062 4.6683C19.8088 4.27513 19.3102 3.90789 19.3102 4.22938ZM19.6707 4.81008C19.6081 5.0077 19.553 5.01716 19.3463 4.86592C19.1952 4.75534 19.1952 4.75144 19.3457 4.58501C19.4775 4.43926 19.5137 4.43162 19.6112 4.52916C19.6801 4.59813 19.7033 4.70753 19.6707 4.81008ZM3.60673 5.10905C3.49957 5.22481 3.41181 5.35011 3.41181 5.3875C3.41181 5.4249 3.41213 5.48194 3.41253 5.51424C3.41285 5.54662 3.4576 5.57351 3.51189 5.57391C3.6863 5.57542 4.35944 6.12691 4.36262 6.27091C4.36659 6.45023 4.46588 6.44793 4.63162 6.26463C4.81302 6.06398 4.80046 5.90447 4.60713 5.95507C4.37136 6.0168 4.23805 5.81353 4.36206 5.58154C4.46715 5.38504 4.41198 5.06251 4.25562 4.9594C4.07493 4.84031 3.79608 4.90459 3.60673 5.10905ZM4.20673 5.34112C4.20673 5.48942 4.07327 5.55386 3.88805 5.49499C3.69647 5.43412 3.68821 5.34932 3.85744 5.17994C3.95601 5.08129 4.01039 5.07317 4.09592 5.14422C4.15689 5.19482 4.20673 5.28344 4.20673 5.34112ZM20.4132 5.25655C20.4077 5.27843 20.3988 5.32577 20.3933 5.36165C20.3638 5.55577 19.6488 6.0363 19.4623 5.98753C19.2791 5.93955 19.2556 6.12819 19.4238 6.29645C19.5843 6.45716 19.7077 6.43743 19.7077 6.25102C19.7077 6.16351 19.7405 6.09191 19.7806 6.09191C19.8208 6.09191 19.9099 6.07027 19.9787 6.04385C20.2178 5.95204 20.2243 6.25317 19.9872 6.44236C19.8159 6.57912 19.7794 6.6582 19.8235 6.79718C19.8911 7.01016 20.1511 6.99345 20.1326 6.77737C20.1174 6.59956 20.3748 6.33098 20.5622 6.32939C20.9698 6.32581 21.0818 5.89723 20.7788 5.49976C20.5844 5.24454 20.4401 5.14859 20.4132 5.25655ZM20.6457 5.71003C20.7775 5.84194 20.7656 6.09191 20.6275 6.09191C20.5651 6.09191 20.4565 6.03439 20.3863 5.96414C20.2877 5.86549 20.2796 5.81107 20.3506 5.72546C20.4632 5.58966 20.5223 5.58656 20.6457 5.71003ZM2.69742 6.39025C2.69797 6.46686 2.91149 6.72081 3.17191 6.95463C3.43224 7.18845 3.63749 7.40325 3.62795 7.43197C3.57906 7.57876 3.76635 7.53922 3.87167 7.3805C3.98511 7.20953 3.98185 7.19434 3.82175 7.15249C3.63709 7.10412 3.59305 6.93227 3.74186 6.84023C3.79218 6.80912 3.87636 6.84245 3.92891 6.91437C4.01643 7.03411 4.03654 7.03172 4.1681 6.88629C4.33885 6.69742 4.29282 6.6321 3.97112 6.60672C3.8398 6.59638 3.57111 6.51213 3.37421 6.41952C2.93279 6.21188 2.69599 6.20162 2.69742 6.39025ZM3.4913 6.72837C3.4913 6.77212 3.45768 6.80792 3.4165 6.80792C3.37533 6.80792 3.3196 6.77212 3.29257 6.72837C3.26555 6.68461 3.29925 6.64881 3.36738 6.64881C3.4355 6.64881 3.4913 6.68461 3.4913 6.72837ZM20.7702 6.95845C20.2732 7.26594 20.1421 7.64049 20.4306 7.92921C20.6325 8.13129 21.0353 8.08657 21.4322 7.81807C21.8079 7.56388 21.9015 7.30755 21.7117 7.05217C21.5156 6.78804 21.1108 6.74778 20.7702 6.95845ZM21.5011 7.22091C21.6152 7.58083 20.7427 8.06676 20.6089 7.71774C20.5397 7.53739 20.7109 7.21271 20.9193 7.12886C21.2356 7.00165 21.4419 7.03435 21.5011 7.22091ZM22.0924 8.26399C22.0924 8.3916 21.3616 8.66376 21.0432 8.65469C20.8221 8.64841 20.8129 8.66098 20.8645 8.90148C20.8944 9.04087 20.9495 9.21343 20.9869 9.28495C21.09 9.48233 21.4417 9.54089 21.6609 9.39721C21.764 9.32958 21.9365 9.27421 22.0442 9.27421C22.2487 9.27421 22.4899 9.08964 22.4899 8.93307C22.4899 8.76814 22.2313 8.1604 22.1611 8.1604C22.1234 8.1604 22.0924 8.20702 22.0924 8.26399ZM22.1719 8.83195C22.1719 9.09361 22.0635 9.14373 21.8966 8.95908C21.7382 8.78406 21.7934 8.63775 22.0176 8.63775C22.1282 8.63775 22.1719 8.69272 22.1719 8.83195ZM21.5757 9.03665C21.5757 9.31351 21.2461 9.363 21.1479 9.10077C21.0955 8.96075 21.11 8.90291 21.2081 8.86123C21.4365 8.76393 21.5757 8.83036 21.5757 9.03665ZM21.1691 10.1634C21.2269 10.4525 21.3031 10.5528 21.3547 10.4079C21.4136 10.2429 21.6155 10.2963 21.6155 10.4769C21.6155 10.6061 21.5785 10.6356 21.4565 10.6036C21.3325 10.5712 21.2975 10.6012 21.2975 10.7402C21.2975 10.9723 21.3787 11.0483 21.4884 10.9187C21.5365 10.8619 21.835 10.7331 22.152 10.6325C22.5876 10.4943 22.7284 10.4145 22.7284 10.3058C22.7284 10.133 22.4668 10.0643 21.8684 10.0799C21.6359 10.0859 21.4052 10.0503 21.3557 10.0007C21.1941 9.83899 21.1176 9.90566 21.1691 10.1634ZM22.1719 10.388C22.0164 10.4886 21.854 10.4886 21.854 10.388C21.854 10.3443 21.9524 10.309 22.0726 10.3097C22.2429 10.3106 22.2648 10.3279 22.1719 10.388ZM1.28055 10.8685C1.04915 11.0842 1.06076 11.3515 1.31171 11.5874C1.4765 11.7423 1.60122 11.7803 1.94582 11.7803C2.30409 11.7803 2.40958 11.7454 2.58589 11.569C3.00195 11.1526 2.61658 10.7062 1.84089 10.7062C1.56188 10.7062 1.40615 10.7514 1.28055 10.8685ZM2.40489 11.1172C2.59082 11.4123 2.17762 11.6415 1.69335 11.5119C1.50718 11.4621 1.46426 11.4071 1.46426 11.2184C1.46426 11.0234 1.50242 10.9791 1.70274 10.9415C2.0079 10.8843 2.30489 10.9586 2.40489 11.1172ZM22.6658 11.3892C22.6019 11.5034 22.4973 11.5181 21.9837 11.4851L21.377 11.4461V11.7799C21.377 12.3159 21.8423 12.5777 22.4428 12.3794C22.7871 12.2657 22.9668 12.0302 22.9668 11.6928C22.9668 11.3798 22.7777 11.1891 22.6658 11.3892ZM22.6489 11.8542C22.6489 12.0564 22.4065 12.2178 22.1027 12.2178C21.7788 12.2178 21.6155 12.1058 21.6155 11.8837C21.6155 11.7605 21.6876 11.7405 22.1322 11.7405C22.527 11.7405 22.6489 11.7673 22.6489 11.8542ZM1.31609 12.5071C1.17586 12.6475 1.10655 12.8022 1.10655 12.9748C1.10655 13.2657 1.3145 13.5099 1.41863 13.3412C1.45241 13.2864 1.69121 13.2125 1.94916 13.1769C2.32293 13.1254 2.4316 13.1355 2.48422 13.2264C2.53565 13.3153 2.57516 13.3198 2.66308 13.2468C2.82675 13.1108 2.80131 12.749 2.61109 12.507C2.46705 12.3237 2.38867 12.2974 1.98604 12.2974C1.59463 12.2974 1.49431 12.3288 1.31609 12.5071ZM2.2812 12.5804C2.49614 12.731 2.51268 12.9339 2.31005 12.9339C2.22865 12.9339 1.99614 12.9566 1.79336 12.9845C1.43771 13.0332 1.42451 13.0278 1.42451 12.8319C1.42451 12.6829 1.48262 12.6077 1.64312 12.549C1.95687 12.4343 2.08159 12.4404 2.2812 12.5804ZM21.4046 13.0507C21.1653 13.2185 21.1284 13.4564 21.3064 13.683C21.6034 14.0608 22.3512 14.1423 22.6625 13.8307C22.791 13.7021 22.8063 13.6262 22.7487 13.4036C22.7068 13.2418 22.6006 13.0932 22.4849 13.0345C22.2191 12.8996 21.607 12.9089 21.4046 13.0507ZM22.2332 13.1781C22.5166 13.277 22.5742 13.3816 22.482 13.63C22.3568 13.9671 21.4565 13.8076 21.4565 13.4484C21.4565 13.343 21.7595 13.104 21.9017 13.0971C21.9498 13.0949 22.099 13.1312 22.2332 13.1781ZM2.61689 13.723C2.61689 13.7705 2.34598 13.9345 2.0149 14.0876C1.5579 14.2988 1.41958 14.3995 1.44065 14.5051C1.46458 14.6245 1.56418 14.6443 2.14209 14.6443C2.51252 14.6443 2.86038 14.6733 2.91499 14.7087C3.03391 14.7857 3.05259 14.47 2.93971 14.2914C2.87834 14.1944 2.84774 14.1937 2.73613 14.2863C2.62476 14.3789 2.5944 14.3786 2.53661 14.285C2.43939 14.1275 2.52389 14.0326 2.70902 14.0915C2.84448 14.1345 2.86356 14.11 2.84146 13.9218C2.81713 13.7147 2.61689 13.5374 2.61689 13.723ZM2.29892 14.2863C2.29892 14.3301 2.23629 14.3653 2.15981 14.3647C2.04089 14.3637 2.03803 14.3522 2.13994 14.2863C2.28994 14.1893 2.29892 14.1893 2.29892 14.2863ZM2.50862 15.2808C2.48351 15.3464 2.37786 15.4001 2.27396 15.4001C2.06188 15.4001 1.82197 15.6238 1.82197 15.8214C1.82197 15.9933 2.07205 16.5139 2.15465 16.5139C2.19026 16.5139 2.21943 16.4652 2.21943 16.4057C2.21943 16.2836 3.00577 15.957 3.29965 15.957C3.40506 15.957 3.4913 15.9195 3.4913 15.8735C3.4913 15.7504 3.24464 15.29 3.14233 15.2223C2.98271 15.1167 2.55656 15.156 2.50862 15.2808ZM3.09106 15.4744C3.20275 15.6834 3.19846 15.6994 3.00076 15.8052C2.85839 15.8815 2.8103 15.873 2.72564 15.7572C2.6533 15.6582 2.64638 15.5732 2.70227 15.4687C2.80489 15.2768 2.98677 15.2795 3.09106 15.4744ZM2.44495 15.8291C2.4773 15.9971 2.32722 16.122 2.16705 16.0605C2.05425 16.0172 2.02221 15.7831 2.11617 15.6891C2.21482 15.5904 2.41546 15.6759 2.44495 15.8291ZM20.5054 15.8722C20.3826 16.1018 20.4049 16.1957 20.5821 16.1957C20.7559 16.1957 20.7771 16.2543 20.6664 16.4293C20.6045 16.5272 20.5752 16.5277 20.4603 16.4322C20.3438 16.3355 20.312 16.3408 20.2158 16.4725C20.067 16.6762 20.0762 16.7808 20.2375 16.7188C20.3103 16.6909 20.6302 16.7454 20.9484 16.8399C21.8815 17.1172 22.0246 16.9534 21.3174 16.4176C21.0659 16.2272 20.825 15.992 20.7818 15.8949C20.6853 15.6779 20.6125 15.6719 20.5054 15.8722ZM19.188 16.6532C18.6003 17.5682 17.6032 18.5654 16.6671 19.1745C16.289 19.4206 16.43 19.2391 16.8261 18.97C17.3765 18.596 18.5627 17.4212 18.9242 16.8918C19.2356 16.4359 19.455 16.2373 19.188 16.6532ZM3.12652 16.6644C2.8479 16.8344 2.5374 17.1994 2.5374 17.3569C2.5374 17.5441 2.87572 17.7869 3.13669 17.7869C3.28987 17.7869 3.51674 17.6935 3.71786 17.5477C4.00888 17.3367 4.04775 17.2714 4.04775 16.9936C4.04775 16.7637 4.00625 16.6564 3.89401 16.5963C3.66444 16.4734 3.40132 16.4967 3.12652 16.6644ZM21.1783 16.5935C21.2053 16.6373 21.1737 16.6731 21.1082 16.6731C21.0426 16.6731 20.9668 16.6373 20.9398 16.5935C20.9128 16.5497 20.9443 16.5139 21.0099 16.5139C21.0755 16.5139 21.1512 16.5497 21.1783 16.5935ZM3.79314 16.958C3.83296 17.2368 3.56309 17.4861 3.20871 17.498C2.94583 17.5067 2.89122 17.4811 2.87111 17.34C2.83788 17.1068 3.28574 16.7362 3.56205 16.7683C3.70164 16.7845 3.77724 16.8466 3.79314 16.958ZM19.7904 17.1868C19.6043 17.3849 19.6367 17.5925 19.8414 17.5138C20.0197 17.4454 20.2698 17.6495 20.1806 17.7907C20.077 17.9546 20.088 18.2948 20.2005 18.4074C20.414 18.6211 20.7441 18.4893 21.0005 18.088C21.1722 17.8193 21.1721 17.7949 20.9994 17.8046C20.7896 17.8164 20.0124 17.2995 20.0587 17.1789C20.1314 16.9894 19.9712 16.9941 19.7904 17.1868ZM4.28622 17.6351C4.19847 17.6971 4.19274 17.7299 4.26436 17.7591C4.42279 17.8237 4.04997 18.2642 3.83686 18.2642C3.65808 18.2642 3.4913 18.4667 3.4913 18.6837C3.4913 18.8118 3.95339 19.378 4.05784 19.378C4.096 19.378 4.12724 19.3094 4.12724 19.2257C4.12724 19.0086 4.91087 18.3945 5.04537 18.5062C5.23758 18.6658 5.2635 18.4187 5.07558 18.2185C4.85825 17.987 4.76318 17.9737 4.76318 18.175C4.76318 18.3658 4.56246 18.5344 4.4065 18.4745C4.23845 18.41 4.25665 18.2454 4.4503 18.0794C4.72399 17.8449 4.57192 17.4331 4.28622 17.6351ZM20.6353 17.9083C20.788 18.0611 20.7163 18.2642 20.5097 18.2642C20.3076 18.2642 20.2667 18.1876 20.3504 17.9659C20.4302 17.7546 20.473 17.7459 20.6353 17.9083ZM18.957 18.282C18.7864 18.5257 18.801 18.5824 19.0345 18.5824C19.2964 18.5824 19.3567 18.7557 19.1857 19.0168C18.8447 19.5377 19.522 19.8626 19.971 19.3935C20.1976 19.1569 20.2575 18.9352 20.0761 19.0049C19.9286 19.0615 19.2307 18.4428 19.2307 18.2554C19.2307 18.0537 19.1085 18.0656 18.957 18.282ZM4.20212 18.6167C4.27772 18.7078 4.26277 18.7485 4.12732 18.8211C3.939 18.9219 3.72978 18.8121 3.72978 18.6125C3.72978 18.4675 4.08098 18.4706 4.20212 18.6167ZM19.7268 19.0904C19.858 19.1901 19.8577 19.2024 19.7205 19.3265C19.4583 19.5641 19.2306 19.4368 19.3888 19.141C19.4887 18.9543 19.538 18.9469 19.7268 19.0904ZM5.71708 19.2092C5.71708 19.4799 5.52662 19.5569 5.24561 19.3997C4.99402 19.2589 4.99323 19.2591 4.79887 19.4819C4.69179 19.6047 4.60419 19.7377 4.60419 19.7775C4.60419 19.9055 5.09354 20.4123 5.21715 20.4123C5.28758 20.4123 5.3189 20.366 5.29339 20.2995C5.26962 20.2375 5.34005 20.0853 5.44991 19.9613C5.55977 19.8375 5.70468 19.6555 5.77201 19.557C5.83926 19.4585 5.96176 19.378 6.04419 19.378C6.23131 19.378 6.23497 19.3074 6.05492 19.1705C5.85643 19.0198 5.71708 19.0357 5.71708 19.2092ZM17.9727 19.2439C17.7608 19.4697 17.7553 19.5371 17.9491 19.5371C18.1786 19.5371 18.3209 19.7461 18.195 19.8979C18.106 20.0053 18.0654 19.991 17.8593 19.7801C17.6661 19.5822 17.5976 19.5548 17.4691 19.6235C17.2744 19.7278 17.3116 19.973 17.5231 19.9796C17.7949 19.9881 17.9588 20.1045 17.9588 20.2891C17.9588 20.5022 18.1902 20.7313 18.4023 20.7283C18.6136 20.7254 19.1104 20.3006 19.0386 20.1843C19.0071 20.1333 18.9502 20.1107 18.9122 20.1341C18.8742 20.1577 18.7783 20.0844 18.6991 19.9714C18.6198 19.8583 18.4708 19.66 18.3678 19.5305C18.2157 19.3394 18.1988 19.2732 18.2782 19.1775C18.4466 18.9743 18.1691 19.0347 17.9727 19.2439ZM16.369 19.3323C16.369 19.4005 15.4593 19.8568 15.3789 19.829C15.3332 19.8131 15.5284 19.6889 15.8126 19.5527C16.3841 19.2789 16.369 19.2849 16.369 19.3323ZM5.19784 19.6448C5.33123 19.7424 5.33377 19.7684 5.22542 19.9233C5.10682 20.0928 5.10475 20.0928 4.96461 19.9379C4.88695 19.852 4.8445 19.7267 4.87025 19.6594C4.92796 19.5089 5.0073 19.5054 5.19784 19.6448ZM6.8151 20.1139C6.79038 20.3705 6.78736 20.3722 6.40922 20.3457C5.72415 20.2975 5.57225 20.6984 6.11311 21.1272C6.39658 21.3518 6.66892 21.3975 6.5469 21.2C6.47718 21.0871 6.88482 20.4321 7.12139 20.2769L7.326 20.1428L7.14865 19.999C6.90064 19.7981 6.84364 19.8177 6.8151 20.1139ZM15.2124 19.9245C15.0995 20.0278 14.1368 20.3337 13.949 20.3259C13.859 20.3222 14.0717 20.2199 14.4215 20.0986C15.1012 19.8628 15.3363 19.8111 15.2124 19.9245ZM18.6743 20.274C18.6743 20.3948 18.4178 20.5595 18.3 20.5143C18.1608 20.4607 18.1709 20.3346 18.3286 20.1602C18.4284 20.0499 18.4856 20.0364 18.5671 20.1041C18.626 20.153 18.6743 20.2295 18.6743 20.274ZM16.3721 20.2682C16.1796 20.475 16.1706 20.6167 16.3263 20.9897C16.4451 21.2741 16.862 21.6852 17.0317 21.6852C17.1668 21.6852 17.5614 21.3014 17.5614 21.1701C17.5614 20.7747 17.0254 20.094 16.7142 20.094C16.6152 20.094 16.4612 20.1724 16.3721 20.2682ZM7.5787 20.5515C7.57513 20.6718 7.51415 20.9774 7.44317 21.2306C7.31018 21.705 7.32918 21.9239 7.50334 21.9239C7.59476 21.9239 7.77624 21.688 8.1307 21.1084C8.2043 20.9881 8.3152 20.8896 8.3772 20.8896C8.54167 20.8896 8.61719 20.7241 8.4896 20.6433C8.30796 20.5281 8.07918 20.5567 8.12958 20.6882C8.18491 20.8323 8.07903 20.9064 7.91026 20.8416C7.76281 20.7849 7.74158 20.5988 7.87743 20.5534C8.00883 20.5096 7.88228 20.3327 7.71956 20.3327C7.62751 20.3327 7.58307 20.4016 7.5787 20.5515ZM17.0825 20.6268C17.2905 20.8914 17.276 21.3121 17.0575 21.3536C16.7667 21.4088 16.334 20.7416 16.4933 20.4836C16.5846 20.3358 16.9174 20.4167 17.0825 20.6268ZM6.43585 20.6151C6.52027 20.7171 6.5151 20.7615 6.4058 20.8708C6.2868 20.9899 6.26128 20.991 6.15134 20.881C6.01716 20.7467 6.07034 20.4918 6.23259 20.4918C6.28807 20.4918 6.37957 20.5474 6.43585 20.6151ZM15.3356 20.7071C14.9257 20.8571 14.7147 21.387 14.9779 21.6056C15.0435 21.6601 15.0971 21.7842 15.0971 21.8815C15.0971 22.0868 15.325 22.322 15.4961 22.2931C15.6781 22.2623 16.21 22.0743 16.21 22.0407C16.21 22.0242 16.1228 21.9233 16.0161 21.8166C15.8916 21.692 15.7865 21.4489 15.722 21.1368C15.6243 20.6633 15.5825 20.6168 15.3356 20.7071ZM15.5331 21.3689C15.4543 21.4966 15.0963 21.4572 15.0416 21.3148C15.0091 21.2299 15.0577 21.1291 15.1784 21.0313C15.3649 20.8801 15.3661 20.8804 15.4734 21.0853C15.5327 21.1985 15.5595 21.3261 15.5331 21.3689ZM7.78387 21.2078C7.73705 21.2954 7.68554 21.367 7.66924 21.367C7.65303 21.367 7.65851 21.2954 7.68133 21.2078C7.70422 21.1203 7.75581 21.0487 7.79595 21.0487C7.83626 21.0487 7.83085 21.1199 7.78387 21.2078ZM13.939 21.2168C13.909 21.2654 13.9334 21.3355 13.9933 21.3725C14.0766 21.4241 14.0803 21.4618 14.0088 21.5333C13.8672 21.675 13.671 21.5647 13.7214 21.3718C13.7567 21.237 13.7272 21.2078 13.5563 21.2078C13.3501 21.2078 13.257 21.4028 13.435 21.4622C13.4826 21.478 13.6081 21.7387 13.7138 22.0413C14.0337 22.9567 14.2602 22.9489 14.2676 22.0224C14.2708 21.6164 14.311 21.3328 14.3767 21.2537C14.4675 21.1442 14.4498 21.1283 14.2371 21.1283C14.1032 21.1283 13.9691 21.1681 13.939 21.2168ZM10.6058 21.4143C10.2527 21.7955 10.2703 22.7257 10.6322 22.8175C10.8834 22.8812 11.2527 22.7266 11.3477 22.518C11.535 22.1065 11.4333 21.5433 11.1295 21.3098C10.9384 21.1631 10.8159 21.1875 10.6058 21.4143ZM12.4014 21.3503C12.0132 21.4133 11.8463 21.8414 11.9948 22.3932C12.0942 22.7628 12.3071 22.9154 12.7024 22.9005C13.056 22.8872 13.1898 22.7557 12.9949 22.6131C12.8689 22.5209 12.8541 22.424 12.8873 21.9068C12.9294 21.25 12.9404 21.2627 12.4014 21.3503ZM11.157 21.7791C11.2334 21.961 11.2414 22.095 11.1851 22.2566C11.0876 22.5365 11.0062 22.5882 10.7603 22.5265C10.5882 22.4833 10.5661 22.4344 10.5661 22.0974C10.5661 21.8881 10.609 21.6741 10.6615 21.6215C10.835 21.4479 11.0461 21.5149 11.157 21.7791ZM12.6329 22.0783C12.6329 22.3383 12.5949 22.5745 12.5484 22.6032C12.3909 22.7006 12.1559 22.3913 12.1559 22.0866C12.1559 21.7686 12.269 21.6056 12.4898 21.6056C12.6115 21.6056 12.6329 21.6762 12.6329 22.0783ZM15.7181 21.8654C15.7523 22.0426 15.5289 22.131 15.3734 22.0017C15.2808 21.9249 15.275 21.8776 15.3472 21.7905C15.4681 21.6448 15.6841 21.6883 15.7181 21.8654ZM14.0625 21.9835C14.0616 22.154 14.0443 22.176 13.9842 22.083C13.8838 21.9273 13.8838 21.7647 13.9842 21.7647C14.028 21.7647 14.0632 21.8632 14.0625 21.9835Z" fill="#9B401B"/>
<path fill-rule="evenodd" clip-rule="evenodd" d="M10.2858 0.0411567C9.16695 0.170517 7.33482 0.789237 6.19562 1.42251C4.25323 2.50227 2.50171 4.24434 1.48373 6.10901C0.967037 7.05551 0.695731 7.75307 0.276013 9.2143C-0.0879807 10.4813 -0.0927502 13.2143 0.266395 14.6841C0.854794 17.0919 1.80886 18.8128 3.48844 20.4956C4.19536 21.2039 4.8383 21.7328 5.46811 22.1237C6.04244 22.4802 6.7744 22.8916 6.96033 22.9623C7.08402 23.0094 7.29317 23.0979 7.42497 23.159C7.88514 23.3722 8.94263 23.683 9.73143 23.8368C10.7658 24.0386 13.2911 24.0574 14.1673 23.8699C15.612 23.5608 16.1941 23.367 17.3229 22.8193C19.7325 21.6502 21.6431 19.7361 22.8315 17.3006C23.725 15.4693 24.0003 14.2275 24 12.0301C23.9997 10.5136 23.8872 9.55934 23.6048 8.67665C23.3354 7.83509 23.2586 7.61862 23.1183 7.30604C23.035 7.12051 22.9668 6.9458 22.9668 6.91771C22.9668 6.79782 22.1046 5.36714 21.702 4.81899C20.814 3.60995 19.4732 2.38405 18.2768 1.6876C17.9926 1.5222 17.7065 1.35354 17.6409 1.31273C17.1362 0.999189 15.849 0.52423 14.7219 0.235755C14.0551 0.065024 13.724 0.0324054 12.3944 0.00662874C11.5419 -0.00991924 10.593 0.00559449 10.2858 0.0411567ZM13.8658 0.518741C17.6842 1.1875 20.8277 3.54416 22.4671 6.96704C23.7874 9.72379 23.9707 12.7012 23.0084 15.7582C22.8698 16.1986 21.9808 18.043 21.8303 18.2027C21.7777 18.2584 21.5966 18.5188 21.4276 18.7813C21.0142 19.4242 19.3329 21.0677 18.5514 21.5931C16.5783 22.9194 14.3383 23.6066 11.9969 23.604C10.2127 23.6021 8.62641 23.2386 6.98895 22.4565C3.59019 20.8332 1.2133 17.6671 0.551453 13.8815C0.0185386 10.833 0.808768 7.63604 2.74241 5.01788C3.29083 4.27529 4.73885 2.88558 5.47821 2.39224C7.99238 0.714612 11.0655 0.0281888 13.8658 0.518741ZM9.85066 0.736092C8.55749 1.02584 7.96861 1.23245 6.81916 1.79946C5.73608 2.33369 4.91723 2.9349 3.93869 3.91426C2.21609 5.63827 1.2862 7.38893 0.753601 9.91067C0.562025 10.8175 0.580467 13.23 0.786431 14.2173C1.12093 15.8203 1.86728 17.5597 2.69638 18.6684C3.45164 19.6785 4.09775 20.3554 4.84267 20.9171C5.08313 21.0984 5.29776 21.2672 5.31962 21.2922C5.54482 21.5499 6.92544 22.2909 7.90311 22.6789C11.7477 24.2042 16.3488 23.4051 19.4883 20.6668C23.0364 17.572 24.3552 12.6691 22.8309 8.23996C22.6443 7.69786 21.8341 6.01235 21.76 6.01235C21.7242 6.01235 21.695 5.97273 21.695 5.92428C21.695 5.80271 20.6776 4.46074 20.2536 4.02293C19.9631 3.72292 19.5014 3.32267 18.7416 2.71174C18.2348 2.30433 17.156 1.71497 16.2895 1.37215C14.7061 0.745639 13.8715 0.600208 11.9247 0.611346C10.8817 0.617313 10.1967 0.658523 9.85066 0.736092ZM14.024 1.05528C14.4175 1.12569 15.0971 1.30222 15.5343 1.4475C16.3347 1.71354 17.7829 2.40815 18.0781 2.66759C18.1655 2.74444 18.4517 2.95257 18.714 3.13014C19.2678 3.50493 20.4722 4.71636 21.007 5.43643C21.2105 5.71043 21.377 5.95157 21.377 5.97225C21.377 5.99302 21.4888 6.19191 21.6256 6.41427C21.9795 6.98987 22.5213 8.25396 22.7225 8.9734C23.4198 11.4663 23.2127 14.2835 22.1694 16.4976C22.0396 16.7731 21.9334 17.0137 21.9334 17.0323C21.9334 17.147 21.142 18.3727 20.7128 18.9229C19.059 21.0422 16.3731 22.5986 13.6663 23.0059C12.9094 23.1199 10.9632 23.1755 10.8207 23.0874C10.7886 23.0676 10.4946 23.014 10.1674 22.9685C9.19549 22.8331 7.89667 22.3979 6.92742 21.883C5.01485 20.8669 3.64441 19.5654 2.40044 17.5837C1.88469 16.762 1.30989 15.2201 1.07499 14.0279C0.873157 13.0035 0.887783 10.8437 1.10345 9.83111C1.38516 8.50863 1.44272 8.34752 2.13287 6.95017C3.182 4.82599 4.92908 3.10134 7.11081 2.03614C8.25613 1.47693 8.15566 1.51965 8.69898 1.35974C10.4034 0.858133 12.3122 0.74898 14.024 1.05528ZM11.7888 1.17453C11.7566 1.22664 11.7725 1.28337 11.8239 1.30047C11.8835 1.32036 11.9175 1.52912 11.9175 1.87536C11.9175 2.22159 11.8835 2.43035 11.8239 2.45024C11.6177 2.51898 11.8684 2.67093 12.188 2.67093C12.6246 2.67093 12.8041 2.48166 12.8476 1.9756C12.8721 1.69102 12.8399 1.53262 12.7179 1.33834C12.5745 1.10961 12.5148 1.07978 12.2016 1.07978C12.0067 1.07978 11.821 1.12242 11.7888 1.17453ZM10.537 1.40422C10.5093 1.54296 10.4866 1.85976 10.4866 2.10806C10.4866 2.35636 10.4437 2.60251 10.3912 2.65502C10.317 2.72925 10.3527 2.75049 10.5517 2.75049C10.7849 2.75049 10.8032 2.73291 10.7577 2.5516C10.7158 2.38421 10.7358 2.3527 10.8841 2.3527C11.0323 2.3527 11.0523 2.38421 11.0104 2.5516C10.9712 2.70785 10.9907 2.75025 11.1012 2.7493C11.1785 2.74858 11.2954 2.71278 11.361 2.66974C11.4668 2.60021 11.4668 2.58278 11.3614 2.51492C11.296 2.47291 11.1529 2.15962 11.0434 1.81879C10.8219 1.12935 10.6243 0.967525 10.537 1.40422ZM13.5435 1.43421C13.3804 1.5973 13.3483 1.70661 13.3483 2.09812C13.3483 2.62161 13.4881 2.83005 13.8391 2.83005C14.0565 2.83005 14.2184 2.67626 14.3664 2.32907C14.5069 1.99931 14.4819 1.6845 14.2964 1.44853C14.088 1.18321 13.7997 1.17772 13.5435 1.43421ZM12.6002 1.5969C12.69 1.95515 12.4989 2.43226 12.2655 2.43226C12.1837 2.43226 12.1559 2.30131 12.1559 1.91514C12.1559 1.41766 12.1634 1.39801 12.3532 1.39801C12.4972 1.39801 12.5638 1.45163 12.6002 1.5969ZM8.81727 1.57813C8.5299 1.70805 8.52458 1.71847 8.68531 1.83613C8.85733 1.96199 9.00058 2.42995 8.99565 2.84994C8.99374 3.01406 9.00113 3.14828 9.0121 3.14828C9.12117 3.14828 9.60289 2.94023 9.71155 2.8462C9.86171 2.71628 9.90082 2.31356 9.77117 2.23337C9.72745 2.20632 9.69168 2.08149 9.69168 1.95587C9.69168 1.53016 9.29891 1.36046 8.81727 1.57813ZM14.1787 1.78402C14.2381 2.06526 14.1282 2.43974 13.9553 2.54547C13.7544 2.66847 13.4776 2.32494 13.5475 2.03948C13.6809 1.49563 14.0834 1.33269 14.1787 1.78402ZM9.42681 1.98849C9.36242 2.15651 9.08603 2.14864 9.02021 1.97687C8.94199 1.77305 9.20765 1.59547 9.36107 1.7491C9.42371 1.81171 9.45328 1.91951 9.42681 1.98849ZM10.8829 2.01458C10.8835 2.06932 10.8483 2.11403 10.8046 2.11403C10.7608 2.11403 10.7256 2.01554 10.7263 1.89525C10.7272 1.72475 10.7446 1.7028 10.8046 1.7958C10.8469 1.86143 10.8822 1.95993 10.8829 2.01458ZM7.45152 2.07711C7.15565 2.2379 7.11208 2.44889 7.29237 2.84779C7.52958 3.37255 7.75581 3.5716 8.04866 3.51297C8.37474 3.44765 8.43292 3.34009 8.39381 2.87476C8.36615 2.54619 8.31376 2.43878 8.07346 2.21841C7.74834 1.92015 7.74269 1.91887 7.45152 2.07711ZM8.01122 2.43862C8.17545 2.61508 8.27036 2.95137 8.20438 3.12338C8.16058 3.23754 7.88037 3.26149 7.72735 3.16419C7.67441 3.13046 7.57266 2.96299 7.5012 2.79194C7.3791 2.49933 7.37981 2.47474 7.51336 2.37705C7.71153 2.23193 7.83276 2.24697 8.01122 2.43862ZM9.69168 2.5516C9.69168 2.6652 9.45948 2.83005 9.29947 2.83005C9.18007 2.83005 9.19342 2.37363 9.31409 2.33027C9.45607 2.27935 9.69168 2.41738 9.69168 2.5516ZM16.9134 2.65104C16.803 2.77141 16.6328 2.98614 16.5354 3.12839C16.4379 3.27064 16.304 3.38695 16.2378 3.38695C16.0769 3.38695 16.1374 3.54463 16.3535 3.68815C16.5147 3.79532 16.528 3.79134 16.528 3.63533C16.528 3.52124 16.578 3.46651 16.6823 3.46651C16.894 3.46651 16.9584 3.59929 16.7917 3.69261C16.6762 3.75737 16.6712 3.78919 16.7601 3.89636C16.9045 4.07051 17.1071 4.06208 17.0523 3.88418C17.0287 3.80765 17.0977 3.49435 17.2056 3.18806C17.3134 2.88176 17.4018 2.58644 17.4021 2.53171C17.4026 2.35636 17.1206 2.42526 16.9134 2.65104ZM6.07241 2.87778C5.60857 3.1186 5.41652 3.38695 5.70802 3.38695C5.80007 3.38695 5.90691 3.49022 5.98481 3.65442C6.05452 3.80152 6.1682 3.96899 6.23743 4.02643C6.31764 4.0931 6.34642 4.19788 6.31685 4.31586C6.26335 4.5294 6.39085 4.5574 6.6213 4.38269C6.76765 4.27187 6.74857 3.96605 6.60103 4.0573C6.49562 4.12246 6.32806 3.88506 6.38139 3.74599C6.45135 3.56341 6.63704 3.60168 6.78609 3.82937C6.8752 3.96541 6.97727 4.02492 7.09333 4.00837C7.32171 3.97584 7.33975 3.65896 7.11216 3.67909C6.93434 3.69484 6.67098 3.42649 6.67098 3.22951C6.67098 3.15631 6.58935 3.01971 6.48958 2.92591C6.31947 2.76592 6.29356 2.76298 6.07241 2.87778ZM10.2084 3.09649C8.09294 3.58489 6.85032 4.28285 5.37598 5.81083C4.27271 6.95423 3.57104 8.30377 3.12032 10.1493C2.91403 10.994 2.9165 12.8871 3.12509 13.7692C3.33765 14.6686 3.53041 15.2336 3.85109 15.8976C4.7057 17.6671 5.99324 19.0084 7.72131 19.9297C9.03865 20.6319 9.94256 20.8774 11.4405 20.9394C12.9044 21 13.8082 20.8953 14.8189 20.5478C16.1935 20.0753 17.2445 19.4459 18.2261 18.5073C19.4085 17.3767 20.1397 16.1423 20.7323 14.2759C21.0222 13.363 21.0493 10.7866 20.7788 9.8662C20.257 8.09055 19.8137 7.24135 18.6965 5.87686C18.4127 5.53023 17.2472 4.56464 16.7474 4.26192C15.3273 3.40207 13.9235 2.99664 12.1957 2.94716C11.1552 2.91732 10.902 2.93634 10.2084 3.09649ZM17.028 3.06872C17.0051 3.15623 16.9313 3.22783 16.8641 3.22783C16.7612 3.22783 16.7647 3.20254 16.8857 3.06872C16.9648 2.98121 17.0386 2.9096 17.0495 2.9096C17.0606 2.9096 17.0508 2.98121 17.028 3.06872ZM6.41661 3.16506C6.42973 3.23277 6.38108 3.34757 6.30842 3.4202C6.18537 3.54336 6.16931 3.54264 6.07201 3.40994C5.98449 3.29053 5.98815 3.24486 6.09491 3.12648C6.23934 2.96625 6.38132 2.98327 6.41661 3.16506ZM18.131 3.16817C18.1786 3.40286 17.7268 3.99175 17.4034 4.11665L17.2055 4.19303L17.4034 4.34498C17.6246 4.515 17.7708 4.50593 17.7392 4.32414C17.7012 4.10575 17.926 3.99636 18.2096 4.09533C18.4317 4.17282 18.487 4.16216 18.6485 4.01028C18.9034 3.77058 18.8804 3.60398 18.5523 3.31567C18.2576 3.05671 18.097 3.00046 18.131 3.16817ZM12.9111 3.42689C13.5423 3.47311 14.428 3.66755 14.8984 3.86318C16.3168 4.4531 17.2228 5.05034 18.1274 5.99174C19.3666 7.28137 20.0578 8.58238 20.4207 10.3085C20.704 11.6562 20.6074 13.2107 20.1469 14.7117C20.0197 15.1265 19.5072 16.1846 19.3703 16.3151C19.3147 16.3681 19.2995 16.3681 19.3247 16.3151C19.9258 15.0485 20.0071 14.8383 20.2627 13.8901C20.495 13.0285 20.4921 11.0548 20.2573 10.1C19.9576 8.88167 19.3596 7.59554 18.7383 6.83322C18.4925 6.53146 17.5045 5.54741 17.178 5.27899C15.8877 4.21841 13.8986 3.54909 12.0367 3.54893C9.80655 3.54869 7.79921 4.3383 6.1589 5.86095C5.26843 6.68747 4.30697 8.22811 3.95419 9.39355C3.42946 11.1272 3.45235 13.1826 4.01365 14.7243C4.12501 15.0304 4.23821 15.3524 4.26508 15.4399C4.35562 15.7346 4.98766 16.7436 5.42232 17.2872C6.35341 18.4518 7.45263 19.2788 8.78293 19.8155C10.0687 20.3343 10.6447 20.4305 12.2834 20.3998C13.2272 20.3822 13.667 20.398 13.5263 20.4446C13.4066 20.4843 12.7362 20.5201 12.0367 20.5241C11.069 20.5299 10.6222 20.4976 10.1686 20.3892C8.46862 19.9832 7.18069 19.2635 5.94936 18.0315C4.43241 16.5138 3.60744 14.7902 3.43328 12.7747C3.24782 10.6292 3.77056 8.70307 5.01612 6.9423C6.13314 5.36332 7.81694 4.20114 9.81092 3.63294C10.3267 3.486 11.8031 3.30349 12.0764 3.3529C12.142 3.36475 12.5176 3.39809 12.9111 3.42689ZM18.5144 3.58481C18.6146 3.70566 18.5742 3.94385 18.4535 3.94385C18.4167 3.94385 18.3186 3.89405 18.2354 3.83311C18.1069 3.73907 18.1 3.70319 18.1902 3.59444C18.3218 3.43572 18.3891 3.43373 18.5144 3.58481ZM4.65046 4.02834C4.37025 4.27457 4.26214 4.53552 4.47398 4.45421C4.59267 4.40863 5.31716 5.11383 5.31867 5.27644C5.31994 5.4093 5.36692 5.4019 5.55722 5.23889C5.76175 5.06355 5.75905 4.99544 5.54633 4.96378C5.28711 4.92512 5.18242 4.70625 5.34522 4.54332C5.58632 4.30202 5.46414 3.93502 5.10754 3.82929C4.9817 3.79198 4.85833 3.84568 4.65046 4.02834ZM13.3881 3.98498C13.7378 4.04298 14.2084 4.14275 14.4338 4.20679C15.3682 4.47235 16.7709 5.29585 17.6119 6.07273C18.0371 6.46543 19.0717 7.79006 19.0717 7.94154C19.0717 7.98935 19.1201 8.08506 19.1792 8.15412C19.357 8.36184 19.7983 9.5105 19.9589 10.1835C20.1761 11.0933 20.1708 12.9186 19.9483 13.8398C19.2128 16.8852 16.8868 19.2024 13.8253 19.9399C12.8963 20.1636 11.121 20.1683 10.2084 19.9495C9.53055 19.787 8.383 19.3456 8.17505 19.1674C8.10605 19.1082 8.01225 19.0598 7.96662 19.0598C7.82576 19.0598 6.50818 18.0398 6.13815 17.6442C5.94546 17.4382 5.67519 17.1086 5.53759 16.9117C5.39999 16.7148 5.24935 16.5147 5.20285 16.4672C5.04076 16.3013 4.35665 14.8638 4.23702 14.4374C3.74608 12.6888 3.77827 10.9613 4.33241 9.31399C4.96207 7.4424 6.35421 5.82897 8.26082 4.76139C9.02744 4.33209 10.6054 3.90312 11.6392 3.84305C12.0872 3.81696 12.6495 3.86262 13.3881 3.98498ZM5.21374 4.14895C5.24021 4.21793 5.20332 4.33305 5.13178 4.40465C5.01127 4.52518 4.99203 4.52518 4.87152 4.40465C4.70904 4.24195 4.78361 4.02341 5.00165 4.02341C5.09188 4.02341 5.18727 4.0799 5.21374 4.14895ZM19.3102 4.22938C19.3102 4.4037 18.7523 4.9781 18.5831 4.9781C18.3573 4.9781 18.3313 5.13093 18.5291 5.29593C18.7602 5.4887 18.8325 5.49347 18.8358 5.31622C18.8372 5.23961 18.8831 5.11812 18.9378 5.04612C19.0242 4.93251 19.0573 4.92989 19.189 5.02623C19.5401 5.2832 20.0016 5.05296 19.9062 4.6683C19.8088 4.27513 19.3102 3.90789 19.3102 4.22938ZM19.6707 4.81008C19.6081 5.0077 19.553 5.01716 19.3463 4.86592C19.1952 4.75534 19.1952 4.75144 19.3457 4.58501C19.4775 4.43926 19.5137 4.43162 19.6112 4.52916C19.6801 4.59813 19.7033 4.70753 19.6707 4.81008ZM3.60673 5.10905C3.49957 5.22481 3.41181 5.35011 3.41181 5.3875C3.41181 5.4249 3.41213 5.48194 3.41253 5.51424C3.41285 5.54662 3.4576 5.57351 3.51189 5.57391C3.6863 5.57542 4.35944 6.12691 4.36262 6.27091C4.36659 6.45023 4.46588 6.44793 4.63162 6.26463C4.81302 6.06398 4.80046 5.90447 4.60713 5.95507C4.37136 6.0168 4.23805 5.81353 4.36206 5.58154C4.46715 5.38504 4.41198 5.06251 4.25562 4.9594C4.07493 4.84031 3.79608 4.90459 3.60673 5.10905ZM4.20673 5.34112C4.20673 5.48942 4.07327 5.55386 3.88805 5.49499C3.69647 5.43412 3.68821 5.34932 3.85744 5.17994C3.95601 5.08129 4.01039 5.07317 4.09592 5.14422C4.15689 5.19482 4.20673 5.28344 4.20673 5.34112ZM20.4132 5.25655C20.4077 5.27843 20.3988 5.32577 20.3933 5.36165C20.3638 5.55577 19.6488 6.0363 19.4623 5.98753C19.2791 5.93955 19.2556 6.12819 19.4238 6.29645C19.5843 6.45716 19.7077 6.43743 19.7077 6.25102C19.7077 6.16351 19.7405 6.09191 19.7806 6.09191C19.8208 6.09191 19.9099 6.07027 19.9787 6.04385C20.2178 5.95204 20.2243 6.25317 19.9872 6.44236C19.8159 6.57912 19.7794 6.6582 19.8235 6.79718C19.8911 7.01016 20.1511 6.99345 20.1326 6.77737C20.1174 6.59956 20.3748 6.33098 20.5622 6.32939C20.9698 6.32581 21.0818 5.89723 20.7788 5.49976C20.5844 5.24454 20.4401 5.14859 20.4132 5.25655ZM20.6457 5.71003C20.7775 5.84194 20.7656 6.09191 20.6275 6.09191C20.5651 6.09191 20.4565 6.03439 20.3863 5.96414C20.2877 5.86549 20.2796 5.81107 20.3506 5.72546C20.4632 5.58966 20.5223 5.58656 20.6457 5.71003ZM2.69742 6.39025C2.69797 6.46686 2.91149 6.72081 3.17191 6.95463C3.43224 7.18845 3.63749 7.40325 3.62795 7.43197C3.57906 7.57876 3.76635 7.53922 3.87167 7.3805C3.98511 7.20953 3.98185 7.19434 3.82175 7.15249C3.63709 7.10412 3.59305 6.93227 3.74186 6.84023C3.79218 6.80912 3.87636 6.84245 3.92891 6.91437C4.01643 7.03411 4.03654 7.03172 4.1681 6.88629C4.33885 6.69742 4.29282 6.6321 3.97112 6.60672C3.8398 6.59638 3.57111 6.51213 3.37421 6.41952C2.93279 6.21188 2.69599 6.20162 2.69742 6.39025ZM3.4913 6.72837C3.4913 6.77212 3.45768 6.80792 3.4165 6.80792C3.37533 6.80792 3.3196 6.77212 3.29257 6.72837C3.26555 6.68461 3.29925 6.64881 3.36738 6.64881C3.4355 6.64881 3.4913 6.68461 3.4913 6.72837ZM20.7702 6.95845C20.2732 7.26594 20.1421 7.64049 20.4306 7.92921C20.6325 8.13129 21.0353 8.08657 21.4322 7.81807C21.8079 7.56388 21.9015 7.30755 21.7117 7.05217C21.5156 6.78804 21.1108 6.74778 20.7702 6.95845ZM21.5011 7.22091C21.6152 7.58083 20.7427 8.06676 20.6089 7.71774C20.5397 7.53739 20.7109 7.21271 20.9193 7.12886C21.2356 7.00165 21.4419 7.03435 21.5011 7.22091ZM22.0924 8.26399C22.0924 8.3916 21.3616 8.66376 21.0432 8.65469C20.8221 8.64841 20.8129 8.66098 20.8645 8.90148C20.8944 9.04087 20.9495 9.21343 20.9869 9.28495C21.09 9.48233 21.4417 9.54089 21.6609 9.39721C21.764 9.32958 21.9365 9.27421 22.0442 9.27421C22.2487 9.27421 22.4899 9.08964 22.4899 8.93307C22.4899 8.76814 22.2313 8.1604 22.1611 8.1604C22.1234 8.1604 22.0924 8.20702 22.0924 8.26399ZM22.1719 8.83195C22.1719 9.09361 22.0635 9.14373 21.8966 8.95908C21.7382 8.78406 21.7934 8.63775 22.0176 8.63775C22.1282 8.63775 22.1719 8.69272 22.1719 8.83195ZM21.5757 9.03665C21.5757 9.31351 21.2461 9.363 21.1479 9.10077C21.0955 8.96075 21.11 8.90291 21.2081 8.86123C21.4365 8.76393 21.5757 8.83036 21.5757 9.03665ZM21.1691 10.1634C21.2269 10.4525 21.3031 10.5528 21.3547 10.4079C21.4136 10.2429 21.6155 10.2963 21.6155 10.4769C21.6155 10.6061 21.5785 10.6356 21.4565 10.6036C21.3325 10.5712 21.2975 10.6012 21.2975 10.7402C21.2975 10.9723 21.3787 11.0483 21.4884 10.9187C21.5365 10.8619 21.835 10.7331 22.152 10.6325C22.5876 10.4943 22.7284 10.4145 22.7284 10.3058C22.7284 10.133 22.4668 10.0643 21.8684 10.0799C21.6359 10.0859 21.4052 10.0503 21.3557 10.0007C21.1941 9.83899 21.1176 9.90566 21.1691 10.1634ZM22.1719 10.388C22.0164 10.4886 21.854 10.4886 21.854 10.388C21.854 10.3443 21.9524 10.309 22.0726 10.3097C22.2429 10.3106 22.2648 10.3279 22.1719 10.388ZM1.28055 10.8685C1.04915 11.0842 1.06076 11.3515 1.31171 11.5874C1.4765 11.7423 1.60122 11.7803 1.94582 11.7803C2.30409 11.7803 2.40958 11.7454 2.58589 11.569C3.00195 11.1526 2.61658 10.7062 1.84089 10.7062C1.56188 10.7062 1.40615 10.7514 1.28055 10.8685ZM2.40489 11.1172C2.59082 11.4123 2.17762 11.6415 1.69335 11.5119C1.50718 11.4621 1.46426 11.4071 1.46426 11.2184C1.46426 11.0234 1.50242 10.9791 1.70274 10.9415C2.0079 10.8843 2.30489 10.9586 2.40489 11.1172ZM22.6658 11.3892C22.6019 11.5034 22.4973 11.5181 21.9837 11.4851L21.377 11.4461V11.7799C21.377 12.3159 21.8423 12.5777 22.4428 12.3794C22.7871 12.2657 22.9668 12.0302 22.9668 11.6928C22.9668 11.3798 22.7777 11.1891 22.6658 11.3892ZM22.6489 11.8542C22.6489 12.0564 22.4065 12.2178 22.1027 12.2178C21.7788 12.2178 21.6155 12.1058 21.6155 11.8837C21.6155 11.7605 21.6876 11.7405 22.1322 11.7405C22.527 11.7405 22.6489 11.7673 22.6489 11.8542ZM1.31609 12.5071C1.17586 12.6475 1.10655 12.8022 1.10655 12.9748C1.10655 13.2657 1.3145 13.5099 1.41863 13.3412C1.45241 13.2864 1.69121 13.2125 1.94916 13.1769C2.32293 13.1254 2.4316 13.1355 2.48422 13.2264C2.53565 13.3153 2.57516 13.3198 2.66308 13.2468C2.82675 13.1108 2.80131 12.749 2.61109 12.507C2.46705 12.3237 2.38867 12.2974 1.98604 12.2974C1.59463 12.2974 1.49431 12.3288 1.31609 12.5071ZM2.2812 12.5804C2.49614 12.731 2.51268 12.9339 2.31005 12.9339C2.22865 12.9339 1.99614 12.9566 1.79336 12.9845C1.43771 13.0332 1.42451 13.0278 1.42451 12.8319C1.42451 12.6829 1.48262 12.6077 1.64312 12.549C1.95687 12.4343 2.08159 12.4404 2.2812 12.5804ZM21.4046 13.0507C21.1653 13.2185 21.1284 13.4564 21.3064 13.683C21.6034 14.0608 22.3512 14.1423 22.6625 13.8307C22.791 13.7021 22.8063 13.6262 22.7487 13.4036C22.7068 13.2418 22.6006 13.0932 22.4849 13.0345C22.2191 12.8996 21.607 12.9089 21.4046 13.0507ZM22.2332 13.1781C22.5166 13.277 22.5742 13.3816 22.482 13.63C22.3568 13.9671 21.4565 13.8076 21.4565 13.4484C21.4565 13.343 21.7595 13.104 21.9017 13.0971C21.9498 13.0949 22.099 13.1312 22.2332 13.1781ZM2.61689 13.723C2.61689 13.7705 2.34598 13.9345 2.0149 14.0876C1.5579 14.2988 1.41958 14.3995 1.44065 14.5051C1.46458 14.6245 1.56418 14.6443 2.14209 14.6443C2.51252 14.6443 2.86038 14.6733 2.91499 14.7087C3.03391 14.7857 3.05259 14.47 2.93971 14.2914C2.87834 14.1944 2.84774 14.1937 2.73613 14.2863C2.62476 14.3789 2.5944 14.3786 2.53661 14.285C2.43939 14.1275 2.52389 14.0326 2.70902 14.0915C2.84448 14.1345 2.86356 14.11 2.84146 13.9218C2.81713 13.7147 2.61689 13.5374 2.61689 13.723ZM2.29892 14.2863C2.29892 14.3301 2.23629 14.3653 2.15981 14.3647C2.04089 14.3637 2.03803 14.3522 2.13994 14.2863C2.28994 14.1893 2.29892 14.1893 2.29892 14.2863ZM2.50862 15.2808C2.48351 15.3464 2.37786 15.4001 2.27396 15.4001C2.06188 15.4001 1.82197 15.6238 1.82197 15.8214C1.82197 15.9933 2.07205 16.5139 2.15465 16.5139C2.19026 16.5139 2.21943 16.4652 2.21943 16.4057C2.21943 16.2836 3.00577 15.957 3.29965 15.957C3.40506 15.957 3.4913 15.9195 3.4913 15.8735C3.4913 15.7504 3.24464 15.29 3.14233 15.2223C2.98271 15.1167 2.55656 15.156 2.50862 15.2808ZM3.09106 15.4744C3.20275 15.6834 3.19846 15.6994 3.00076 15.8052C2.85839 15.8815 2.8103 15.873 2.72564 15.7572C2.6533 15.6582 2.64638 15.5732 2.70227 15.4687C2.80489 15.2768 2.98677 15.2795 3.09106 15.4744ZM2.44495 15.8291C2.4773 15.9971 2.32722 16.122 2.16705 16.0605C2.05425 16.0172 2.02221 15.7831 2.11617 15.6891C2.21482 15.5904 2.41546 15.6759 2.44495 15.8291ZM20.5054 15.8722C20.3826 16.1018 20.4049 16.1957 20.5821 16.1957C20.7559 16.1957 20.7771 16.2543 20.6664 16.4293C20.6045 16.5272 20.5752 16.5277 20.4603 16.4322C20.3438 16.3355 20.312 16.3408 20.2158 16.4725C20.067 16.6762 20.0762 16.7808 20.2375 16.7188C20.3103 16.6909 20.6302 16.7454 20.9484 16.8399C21.8815 17.1172 22.0246 16.9534 21.3174 16.4176C21.0659 16.2272 20.825 15.992 20.7818 15.8949C20.6853 15.6779 20.6125 15.6719 20.5054 15.8722ZM19.188 16.6532C18.6003 17.5682 17.6032 18.5654 16.6671 19.1745C16.289 19.4206 16.43 19.2391 16.8261 18.97C17.3765 18.596 18.5627 17.4212 18.9242 16.8918C19.2356 16.4359 19.455 16.2373 19.188 16.6532ZM3.12652 16.6644C2.8479 16.8344 2.5374 17.1994 2.5374 17.3569C2.5374 17.5441 2.87572 17.7869 3.13669 17.7869C3.28987 17.7869 3.51674 17.6935 3.71786 17.5477C4.00888 17.3367 4.04775 17.2714 4.04775 16.9936C4.04775 16.7637 4.00625 16.6564 3.89401 16.5963C3.66444 16.4734 3.40132 16.4967 3.12652 16.6644ZM21.1783 16.5935C21.2053 16.6373 21.1737 16.6731 21.1082 16.6731C21.0426 16.6731 20.9668 16.6373 20.9398 16.5935C20.9128 16.5497 20.9443 16.5139 21.0099 16.5139C21.0755 16.5139 21.1512 16.5497 21.1783 16.5935ZM3.79314 16.958C3.83296 17.2368 3.56309 17.4861 3.20871 17.498C2.94583 17.5067 2.89122 17.4811 2.87111 17.34C2.83788 17.1068 3.28574 16.7362 3.56205 16.7683C3.70164 16.7845 3.77724 16.8466 3.79314 16.958ZM19.7904 17.1868C19.6043 17.3849 19.6367 17.5925 19.8414 17.5138C20.0197 17.4454 20.2698 17.6495 20.1806 17.7907C20.077 17.9546 20.088 18.2948 20.2005 18.4074C20.414 18.6211 20.7441 18.4893 21.0005 18.088C21.1722 17.8193 21.1721 17.7949 20.9994 17.8046C20.7896 17.8164 20.0124 17.2995 20.0587 17.1789C20.1314 16.9894 19.9712 16.9941 19.7904 17.1868ZM4.28622 17.6351C4.19847 17.6971 4.19274 17.7299 4.26436 17.7591C4.42279 17.8237 4.04997 18.2642 3.83686 18.2642C3.65808 18.2642 3.4913 18.4667 3.4913 18.6837C3.4913 18.8118 3.95339 19.378 4.05784 19.378C4.096 19.378 4.12724 19.3094 4.12724 19.2257C4.12724 19.0086 4.91087 18.3945 5.04537 18.5062C5.23758 18.6658 5.2635 18.4187 5.07558 18.2185C4.85825 17.987 4.76318 17.9737 4.76318 18.175C4.76318 18.3658 4.56246 18.5344 4.4065 18.4745C4.23845 18.41 4.25665 18.2454 4.4503 18.0794C4.72399 17.8449 4.57192 17.4331 4.28622 17.6351ZM20.6353 17.9083C20.788 18.0611 20.7163 18.2642 20.5097 18.2642C20.3076 18.2642 20.2667 18.1876 20.3504 17.9659C20.4302 17.7546 20.473 17.7459 20.6353 17.9083ZM18.957 18.282C18.7864 18.5257 18.801 18.5824 19.0345 18.5824C19.2964 18.5824 19.3567 18.7557 19.1857 19.0168C18.8447 19.5377 19.522 19.8626 19.971 19.3935C20.1976 19.1569 20.2575 18.9352 20.0761 19.0049C19.9286 19.0615 19.2307 18.4428 19.2307 18.2554C19.2307 18.0537 19.1085 18.0656 18.957 18.282ZM4.20212 18.6167C4.27772 18.7078 4.26277 18.7485 4.12732 18.8211C3.939 18.9219 3.72978 18.8121 3.72978 18.6125C3.72978 18.4675 4.08098 18.4706 4.20212 18.6167ZM19.7268 19.0904C19.858 19.1901 19.8577 19.2024 19.7205 19.3265C19.4583 19.5641 19.2306 19.4368 19.3888 19.141C19.4887 18.9543 19.538 18.9469 19.7268 19.0904ZM5.71708 19.2092C5.71708 19.4799 5.52662 19.5569 5.24561 19.3997C4.99402 19.2589 4.99323 19.2591 4.79887 19.4819C4.69179 19.6047 4.60419 19.7377 4.60419 19.7775C4.60419 19.9055 5.09354 20.4123 5.21715 20.4123C5.28758 20.4123 5.3189 20.366 5.29339 20.2995C5.26962 20.2375 5.34005 20.0853 5.44991 19.9613C5.55977 19.8375 5.70468 19.6555 5.77201 19.557C5.83926 19.4585 5.96176 19.378 6.04419 19.378C6.23131 19.378 6.23497 19.3074 6.05492 19.1705C5.85643 19.0198 5.71708 19.0357 5.71708 19.2092ZM17.9727 19.2439C17.7608 19.4697 17.7553 19.5371 17.9491 19.5371C18.1786 19.5371 18.3209 19.7461 18.195 19.8979C18.106 20.0053 18.0654 19.991 17.8593 19.7801C17.6661 19.5822 17.5976 19.5548 17.4691 19.6235C17.2744 19.7278 17.3116 19.973 17.5231 19.9796C17.7949 19.9881 17.9588 20.1045 17.9588 20.2891C17.9588 20.5022 18.1902 20.7313 18.4023 20.7283C18.6136 20.7254 19.1104 20.3006 19.0386 20.1843C19.0071 20.1333 18.9502 20.1107 18.9122 20.1341C18.8742 20.1577 18.7783 20.0844 18.6991 19.9714C18.6198 19.8583 18.4708 19.66 18.3678 19.5305C18.2157 19.3394 18.1988 19.2732 18.2782 19.1775C18.4466 18.9743 18.1691 19.0347 17.9727 19.2439ZM16.369 19.3323C16.369 19.4005 15.4593 19.8568 15.3789 19.829C15.3332 19.8131 15.5284 19.6889 15.8126 19.5527C16.3841 19.2789 16.369 19.2849 16.369 19.3323ZM5.19784 19.6448C5.33123 19.7424 5.33377 19.7684 5.22542 19.9233C5.10682 20.0928 5.10475 20.0928 4.96461 19.9379C4.88695 19.852 4.8445 19.7267 4.87025 19.6594C4.92796 19.5089 5.0073 19.5054 5.19784 19.6448ZM6.8151 20.1139C6.79038 20.3705 6.78736 20.3722 6.40922 20.3457C5.72415 20.2975 5.57225 20.6984 6.11311 21.1272C6.39658 21.3518 6.66892 21.3975 6.5469 21.2C6.47718 21.0871 6.88482 20.4321 7.12139 20.2769L7.326 20.1428L7.14865 19.999C6.90064 19.7981 6.84364 19.8177 6.8151 20.1139ZM15.2124 19.9245C15.0995 20.0278 14.1368 20.3337 13.949 20.3259C13.859 20.3222 14.0717 20.2199 14.4215 20.0986C15.1012 19.8628 15.3363 19.8111 15.2124 19.9245ZM18.6743 20.274C18.6743 20.3948 18.4178 20.5595 18.3 20.5143C18.1608 20.4607 18.1709 20.3346 18.3286 20.1602C18.4284 20.0499 18.4856 20.0364 18.5671 20.1041C18.626 20.153 18.6743 20.2295 18.6743 20.274ZM16.3721 20.2682C16.1796 20.475 16.1706 20.6167 16.3263 20.9897C16.4451 21.2741 16.862 21.6852 17.0317 21.6852C17.1668 21.6852 17.5614 21.3014 17.5614 21.1701C17.5614 20.7747 17.0254 20.094 16.7142 20.094C16.6152 20.094 16.4612 20.1724 16.3721 20.2682ZM7.5787 20.5515C7.57513 20.6718 7.51415 20.9774 7.44317 21.2306C7.31018 21.705 7.32918 21.9239 7.50334 21.9239C7.59476 21.9239 7.77624 21.688 8.1307 21.1084C8.2043 20.9881 8.3152 20.8896 8.3772 20.8896C8.54167 20.8896 8.61719 20.7241 8.4896 20.6433C8.30796 20.5281 8.07918 20.5567 8.12958 20.6882C8.18491 20.8323 8.07903 20.9064 7.91026 20.8416C7.76281 20.7849 7.74158 20.5988 7.87743 20.5534C8.00883 20.5096 7.88228 20.3327 7.71956 20.3327C7.62751 20.3327 7.58307 20.4016 7.5787 20.5515ZM17.0825 20.6268C17.2905 20.8914 17.276 21.3121 17.0575 21.3536C16.7667 21.4088 16.334 20.7416 16.4933 20.4836C16.5846 20.3358 16.9174 20.4167 17.0825 20.6268ZM6.43585 20.6151C6.52027 20.7171 6.5151 20.7615 6.4058 20.8708C6.2868 20.9899 6.26128 20.991 6.15134 20.881C6.01716 20.7467 6.07034 20.4918 6.23259 20.4918C6.28807 20.4918 6.37957 20.5474 6.43585 20.6151ZM15.3356 20.7071C14.9257 20.8571 14.7147 21.387 14.9779 21.6056C15.0435 21.6601 15.0971 21.7842 15.0971 21.8815C15.0971 22.0868 15.325 22.322 15.4961 22.2931C15.6781 22.2623 16.21 22.0743 16.21 22.0407C16.21 22.0242 16.1228 21.9233 16.0161 21.8166C15.8916 21.692 15.7865 21.4489 15.722 21.1368C15.6243 20.6633 15.5825 20.6168 15.3356 20.7071ZM15.5331 21.3689C15.4543 21.4966 15.0963 21.4572 15.0416 21.3148C15.0091 21.2299 15.0577 21.1291 15.1784 21.0313C15.3649 20.8801 15.3661 20.8804 15.4734 21.0853C15.5327 21.1985 15.5595 21.3261 15.5331 21.3689ZM7.78387 21.2078C7.73705 21.2954 7.68554 21.367 7.66924 21.367C7.65303 21.367 7.65851 21.2954 7.68133 21.2078C7.70422 21.1203 7.75581 21.0487 7.79595 21.0487C7.83626 21.0487 7.83085 21.1199 7.78387 21.2078ZM13.939 21.2168C13.909 21.2654 13.9334 21.3355 13.9933 21.3725C14.0766 21.4241 14.0803 21.4618 14.0088 21.5333C13.8672 21.675 13.671 21.5647 13.7214 21.3718C13.7567 21.237 13.7272 21.2078 13.5563 21.2078C13.3501 21.2078 13.257 21.4028 13.435 21.4622C13.4826 21.478 13.6081 21.7387 13.7138 22.0413C14.0337 22.9567 14.2602 22.9489 14.2676 22.0224C14.2708 21.6164 14.311 21.3328 14.3767 21.2537C14.4675 21.1442 14.4498 21.1283 14.2371 21.1283C14.1032 21.1283 13.9691 21.1681 13.939 21.2168ZM10.6058 21.4143C10.2527 21.7955 10.2703 22.7257 10.6322 22.8175C10.8834 22.8812 11.2527 22.7266 11.3477 22.518C11.535 22.1065 11.4333 21.5433 11.1295 21.3098C10.9384 21.1631 10.8159 21.1875 10.6058 21.4143ZM12.4014 21.3503C12.0132 21.4133 11.8463 21.8414 11.9948 22.3932C12.0942 22.7628 12.3071 22.9154 12.7024 22.9005C13.056 22.8872 13.1898 22.7557 12.9949 22.6131C12.8689 22.5209 12.8541 22.424 12.8873 21.9068C12.9294 21.25 12.9404 21.2627 12.4014 21.3503ZM11.157 21.7791C11.2334 21.961 11.2414 22.095 11.1851 22.2566C11.0876 22.5365 11.0062 22.5882 10.7603 22.5265C10.5882 22.4833 10.5661 22.4344 10.5661 22.0974C10.5661 21.8881 10.609 21.6741 10.6615 21.6215C10.835 21.4479 11.0461 21.5149 11.157 21.7791ZM12.6329 22.0783C12.6329 22.3383 12.5949 22.5745 12.5484 22.6032C12.3909 22.7006 12.1559 22.3913 12.1559 22.0866C12.1559 21.7686 12.269 21.6056 12.4898 21.6056C12.6115 21.6056 12.6329 21.6762 12.6329 22.0783ZM15.7181 21.8654C15.7523 22.0426 15.5289 22.131 15.3734 22.0017C15.2808 21.9249 15.275 21.8776 15.3472 21.7905C15.4681 21.6448 15.6841 21.6883 15.7181 21.8654ZM14.0625 21.9835C14.0616 22.154 14.0443 22.176 13.9842 22.083C13.8838 21.9273 13.8838 21.7647 13.9842 21.7647C14.028 21.7647 14.0632 21.8632 14.0625 21.9835Z" fill="#9B401B" fill-opacity="0.49"/>
<defs>
<linearGradient id="paint0_linear_387:1109" x1="7.97058" y1="10.9254" x2="16.6571" y2="10.9254" gradientUnits="userSpaceOnUse">
<stop stop-color="#9B401B"/>
<stop offset="1" stop-color="#782A10"/>
</linearGradient>
<linearGradient id="paint1_linear_387:1109" x1="0" y1="12" x2="24" y2="12" gradientUnits="userSpaceOnUse">
<stop stop-color="#9C401B"/>
<stop offset="1" stop-color="#72260E"/>
</linearGradient>
<linearGradient id="paint2_linear_387:1109" x1="25.1" y1="2.8" x2="4.8" y2="16.6" gradientUnits="userSpaceOnUse">
<stop stop-color="white"/>
<stop offset="1" stop-color="white" stop-opacity="0"/>
</linearGradient>
</defs>
</svg>
