<svg width="44" height="44" viewBox="0 0 44 44" fill="none" xmlns="http://www.w3.org/2000/svg">
<path d="M30.3612 27.7422C30.3729 27.8453 30.3565 27.9516 30.312 28.0611C30.2664 28.1612 30.2062 28.2582 30.1314 28.3522C30.0555 28.4368 29.9692 28.5131 29.8724 28.581C29.7746 28.6396 29.6787 28.6743 29.5849 28.685C29.5193 28.6924 29.4531 28.6952 29.3863 28.6933C29.3196 28.6914 29.2534 28.6942 29.1877 28.7017C29.1033 28.7113 29.0502 28.7458 29.0285 28.8053C29.0057 28.8553 28.9834 28.9101 28.9617 28.9695C28.9493 29.0279 28.9224 29.0832 28.8808 29.1354C28.8403 29.1969 28.7591 29.2347 28.6371 29.2485C28.5621 29.2571 28.4813 29.2568 28.3947 29.2476C28.3082 29.2385 28.2227 29.2387 28.1382 29.2484C27.96 29.2686 27.7902 29.3212 27.6288 29.406C27.4779 29.4991 27.3086 29.5564 27.121 29.5777C26.9615 29.5959 26.7191 29.595 26.3937 29.5751C26.0694 29.5645 25.7367 29.5217 25.3955 29.4466C25.0648 29.3798 24.769 29.2853 24.508 29.1631C24.2459 29.0316 24.1031 28.8627 24.0796 28.6565C24.0614 28.4972 24.1324 28.3277 24.2924 28.1481C24.4608 27.958 24.6463 27.7518 24.8491 27.5294C25.0507 27.2976 25.2262 27.045 25.3756 26.7717C25.5343 26.4973 25.5945 26.1914 25.556 25.854C25.5336 25.6571 25.4694 25.4698 25.3636 25.292C25.2672 25.1131 25.1489 24.9509 25.0088 24.8055C24.8676 24.6507 24.7093 24.512 24.5338 24.3896C24.3676 24.2661 24.2073 24.1515 24.0527 24.0456C24.0036 24.0322 23.9322 24.0309 23.8384 24.0415C23.5851 24.0704 23.335 24.1273 23.0881 24.2124C22.8402 24.2881 22.5896 24.3403 22.3363 24.3692C22.205 24.3841 22.0668 24.3808 21.9218 24.3594C21.7862 24.3368 21.6864 24.2533 21.6224 24.1086C21.3924 24.2582 21.1618 24.4031 20.9307 24.5434C20.6986 24.6742 20.4607 24.7962 20.217 24.9094C20.064 24.9838 19.9515 25.0393 19.8797 25.076C19.8172 25.1116 19.7693 25.1502 19.7361 25.192C19.7122 25.2327 19.6952 25.2916 19.685 25.3687C19.6841 25.4447 19.6636 25.5563 19.6233 25.7033C19.5965 25.8012 19.5874 25.8877 19.5959 25.9627C19.6045 26.0377 19.6141 26.122 19.6248 26.2157C19.6387 26.3376 19.6264 26.4387 19.5881 26.519C19.5487 26.5899 19.5045 26.6614 19.4557 26.7334C19.4152 26.795 19.3753 26.8612 19.3359 26.9322C19.2964 27.0031 19.2826 27.0901 19.2944 27.1932C19.304 27.2776 19.3266 27.351 19.3622 27.4134L19.3562 27.4852C19.3722 27.6258 19.4225 27.734 19.5072 27.8098C19.5908 27.8763 19.6869 27.927 19.7954 27.9622C19.9123 27.9868 20.0338 28.011 20.16 28.0346C20.2863 28.0582 20.3995 28.0928 20.4997 28.1383C20.5999 28.1839 20.6997 28.2675 20.7991 28.3891C20.9068 28.5002 21.0021 28.627 21.0848 28.7695C21.1759 28.9015 21.2535 29.0399 21.3175 29.1845C21.3804 29.3197 21.4177 29.4389 21.4295 29.542L21.4375 29.6123L21.2546 29.6331C20.8793 29.6758 20.5062 29.7373 20.1353 29.8175C19.7726 29.8872 19.4105 29.9617 19.0489 30.0408C18.6884 30.1293 18.3221 30.209 17.9501 30.2798C17.5885 30.3589 17.2201 30.4198 16.8449 30.4625C16.7135 30.4775 16.5207 30.4947 16.2663 30.5141C16.0213 30.5325 15.7742 30.5322 15.525 30.5131C15.2768 30.5034 15.0536 30.4623 14.8552 30.3899C14.6652 30.3071 14.5596 30.172 14.5382 29.9846C14.5157 29.7878 14.5393 29.6189 14.6087 29.4781C14.6876 29.3362 14.7925 29.2151 14.9236 29.1147C15.063 29.0039 15.2187 28.9103 15.3905 28.8338C15.5706 28.7468 15.7466 28.6651 15.9184 28.5885C16.0996 28.511 16.2668 28.435 16.4199 28.3606C16.5823 28.2851 16.7145 28.1941 16.8163 28.0876C16.9182 27.9811 16.9949 27.8205 17.0465 27.6057C17.0969 27.3816 17.1317 27.1451 17.1509 26.8961C17.17 26.647 17.1849 26.4033 17.1957 26.1647C17.2055 25.9167 17.2164 25.7209 17.2285 25.5771C17.2325 25.5292 17.2308 25.4724 17.2233 25.4068C17.2242 25.3307 17.2203 25.2552 17.2118 25.1803C17.2126 25.1042 17.2093 25.0334 17.2018 24.9678C17.2037 24.9011 17.2124 24.8527 17.228 24.8224C17.3036 24.6524 17.3633 24.5507 17.407 24.5172C17.4601 24.4827 17.4949 24.455 17.5115 24.4341C17.5375 24.4122 17.5463 24.3637 17.5377 24.2887C17.5375 24.2033 17.5229 24.0341 17.4941 23.781C17.4813 23.6686 17.4951 23.5816 17.5356 23.52C17.575 23.449 17.6155 23.3875 17.6571 23.3353C17.708 23.282 17.7548 23.234 17.7974 23.1911C17.839 23.1389 17.8555 23.0753 17.8469 23.0004C17.832 22.8692 17.7811 22.7563 17.6943 22.6617C17.6064 22.5578 17.555 22.4402 17.54 22.309C17.5315 22.2341 17.5428 22.1663 17.5739 22.1058C17.605 22.0453 17.6413 21.989 17.6829 21.9368C17.7338 21.8835 17.7754 21.8313 17.8076 21.7802C17.8387 21.7197 17.85 21.6519 17.8414 21.5769C17.8297 21.4739 17.7944 21.3734 17.7358 21.2757C17.6865 21.1769 17.656 21.0759 17.6442 20.9728C17.6357 20.8978 17.6533 20.8436 17.697 20.8102C17.749 20.7663 17.802 20.7317 17.8562 20.7066C17.9197 20.6804 17.9744 20.6599 18.0202 20.6452C18.0744 20.62 18.0999 20.5934 18.0967 20.5653C18.0621 20.5123 18.0073 20.49 17.9323 20.4986C17.8197 20.5114 17.7703 20.5787 17.7842 20.7005C17.7132 20.6612 17.6511 20.616 17.5977 20.5651C17.5434 20.5049 17.5119 20.4372 17.5033 20.3623C17.4927 20.2685 17.5065 20.1815 17.5448 20.1012C17.5821 20.0115 17.623 19.9119 17.6676 19.8024C17.7215 19.6919 17.7644 19.5683 17.7963 19.4318C17.8283 19.2952 17.8336 19.1332 17.8122 18.9458C17.7898 18.749 17.7402 18.5647 17.6636 18.3931C17.586 18.212 17.5365 18.0278 17.5151 17.8403C17.5044 17.7466 17.5125 17.6508 17.5393 17.5528C17.5755 17.4537 17.617 17.3588 17.6636 17.2681C17.7186 17.1669 17.7694 17.0709 17.8161 16.9801C17.8711 16.8789 17.9068 16.7752 17.9232 16.6689C17.9591 16.4844 17.9659 16.2938 17.9435 16.097C17.9304 15.8991 17.9126 15.7017 17.8902 15.5049C17.8771 15.307 17.8693 15.1133 17.8667 14.9237C17.8724 14.7237 17.9125 14.534 17.9871 14.3547C18.0544 14.1951 18.1062 14.0658 18.1424 13.9667C18.1786 13.8677 18.2107 13.7738 18.2386 13.6852C18.2654 13.5872 18.2871 13.4851 18.3034 13.3788C18.3188 13.2631 18.3303 13.1146 18.3382 12.9334C18.3541 12.6562 18.3945 12.3858 18.4595 12.1221C18.5338 11.8573 18.5742 11.5869 18.5808 11.3108C18.576 11.1025 18.5656 10.928 18.5496 10.7875C18.5419 10.6364 18.5504 10.5026 18.5751 10.3858C18.6091 10.268 18.673 10.1611 18.7665 10.065C18.8695 9.96782 19.0287 9.86426 19.2443 9.75428C19.4785 9.64217 19.716 9.55818 19.9567 9.5023C20.1964 9.43705 20.4381 9.39055 20.682 9.36279C20.9635 9.33076 21.2559 9.31172 21.5593 9.30566C21.6056 9.46179 21.6831 9.60011 21.7919 9.72064C21.8996 9.8318 22.012 9.94243 22.1291 10.0525C22.2556 10.1615 22.3732 10.2763 22.482 10.3969C22.599 10.5069 22.6854 10.6395 22.7411 10.7946C22.8126 11.0048 22.8643 11.2078 22.8961 11.4035C22.9362 11.5888 23.0373 11.7672 23.1994 11.9386C23.2769 12.0342 23.3236 12.1523 23.3396 12.2929C23.3642 12.5085 23.3596 12.7179 23.3257 12.9211C23.2919 13.1243 23.2867 13.329 23.3102 13.5352C23.3241 13.657 23.3846 13.8542 23.4917 14.1269C23.5988 14.3995 23.7227 14.6939 23.8633 15.0102C24.0028 15.3171 24.1371 15.6199 24.2662 15.9185C24.3942 16.2077 24.4913 16.434 24.5574 16.5973C24.6825 16.9439 24.7664 17.3046 24.8091 17.6795C24.8613 18.0533 24.9639 18.4118 25.1171 18.7552C25.2724 19.1172 25.4137 19.4809 25.5409 19.8462C25.667 20.2021 25.7665 20.5752 25.8396 20.9657C25.9 21.329 25.9875 21.6798 26.1021 22.0181C26.2156 22.3469 26.3344 22.6799 26.4584 23.0171C26.5813 23.3449 26.6953 23.6784 26.8005 24.0177C26.9151 24.3559 26.9938 24.7125 27.0365 25.0873C27.0526 25.2279 27.0551 25.3748 27.044 25.528C27.0424 25.68 26.9963 25.8182 26.906 25.9424C27.1297 26.1543 27.379 26.3822 27.6539 26.6263C27.9382 26.8692 28.2114 27.0565 28.4734 27.188C28.5737 27.2336 28.7239 27.2592 28.9241 27.2649C29.1243 27.2706 29.3256 27.2857 29.5279 27.3101C29.7386 27.3241 29.9238 27.3647 30.0835 27.432C30.2515 27.4888 30.3441 27.5922 30.3612 27.7422ZM23.6011 20.8359C23.5915 20.7516 23.5464 20.6476 23.4657 20.5238C23.384 20.3907 23.2914 20.2446 23.1877 20.0855C23.0934 19.9254 23.0022 19.7506 22.9141 19.5613C22.826 19.372 22.7696 19.1695 22.7451 18.9539C22.7162 18.7009 22.6504 18.4568 22.5475 18.2217C22.4436 17.9772 22.3632 17.73 22.3062 17.4802C22.2639 17.2761 22.2148 17.0539 22.1589 16.8134C22.1112 16.5625 22.0376 16.3335 21.938 16.1265C21.8373 15.9101 21.6992 15.7407 21.5237 15.6183C21.3565 15.4854 21.1275 15.4355 20.8367 15.4686C20.8265 15.5457 20.8 15.6057 20.7574 15.6485C20.7137 15.682 20.6606 15.7165 20.5982 15.7521C20.544 15.7772 20.4852 15.8029 20.4217 15.8291C20.3581 15.8554 20.3103 15.894 20.2781 15.9452C20.2907 15.9722 20.3002 16.0139 20.3066 16.0701C20.3258 16.2388 20.3065 16.4024 20.2485 16.5609C20.1989 16.7089 20.1545 16.8611 20.1153 17.0175C20.0678 17.1843 20.0401 17.3583 20.0323 17.5396C20.0328 17.7104 20.0426 17.8802 20.0619 18.0489C20.079 18.1989 20.1002 18.3436 20.1256 18.4831C20.151 18.6226 20.1718 18.7627 20.1878 18.9032C20.2124 19.1188 20.215 19.3084 20.1956 19.472C20.1752 19.6262 20.149 19.7716 20.1171 19.9081C20.0851 20.0447 20.0573 20.176 20.0337 20.3021C20.009 20.4188 20.0042 20.5428 20.0191 20.674C20.0512 20.9552 20.0883 21.1978 20.1306 21.4018C20.1729 21.6059 20.2349 21.7745 20.3166 21.9076C20.3972 22.0313 20.5028 22.1237 20.6333 22.1848C20.7627 22.2365 20.9353 22.2501 21.1511 22.2256C21.3012 22.2085 21.5148 22.1652 21.792 22.0957C22.0785 22.0251 22.3577 21.9316 22.6295 21.8152C22.9096 21.6884 23.1448 21.5429 23.3352 21.3789C23.5349 21.2137 23.6236 21.0328 23.6011 20.8359Z" fill="#C69512"/>
<path fill-rule="evenodd" clip-rule="evenodd" d="M18.7502 0.0750253C16.7106 0.310839 13.3708 1.43871 11.2941 2.59313C7.75329 4.56143 4.56041 7.73708 2.70473 11.1362C1.76283 12.8616 1.26826 14.1332 0.503149 16.7969C-0.160382 19.1066 -0.169076 24.0886 0.485615 26.7679C1.55822 31.1572 3.2974 34.2941 6.35914 37.3619C7.6478 38.653 8.81981 39.617 9.96791 40.3297C11.0149 40.9795 12.3492 41.7295 12.6881 41.8584C12.9136 41.9443 13.2948 42.1055 13.5351 42.2169C14.374 42.6056 16.3017 43.1721 17.7396 43.4525C19.6251 43.8203 24.2285 43.8547 25.8258 43.5129C28.4594 42.9493 29.5205 42.596 31.5782 41.5977C35.9708 39.4665 39.4536 35.9773 41.62 31.5376C43.2488 28.1992 43.7506 25.9356 43.75 21.9298C43.7494 19.1655 43.5444 17.4259 43.0295 15.8168C42.5384 14.2827 42.3984 13.8881 42.1427 13.3183C41.9908 12.9801 41.8666 12.6616 41.8666 12.6104C41.8666 12.3919 40.2948 9.78384 39.5609 8.78461C37.9423 6.58064 35.498 4.34592 33.3171 3.07635C32.7991 2.77484 32.2774 2.46739 32.1579 2.39299C31.2378 1.82144 28.8915 0.955628 26.8367 0.429761C25.6212 0.118533 25.0177 0.0590723 22.594 0.0120836C21.0398 -0.0180819 19.3101 0.0101983 18.7502 0.0750253ZM25.2762 0.945621C32.2368 2.16472 37.9672 6.4607 40.9556 12.7003C43.3624 17.7257 43.6967 23.1533 41.9424 28.7258C41.6897 29.5287 40.0692 32.891 39.7948 33.182C39.699 33.2836 39.3687 33.7582 39.0608 34.2368C38.3071 35.4086 35.2422 38.4047 33.8176 39.3624C30.2209 41.7801 26.1375 43.0328 21.8694 43.0282C18.617 43.0247 15.7252 42.3621 12.7403 40.9363C6.54462 37.9772 2.21175 32.2057 1.00525 25.3048C0.0337943 19.7476 1.47432 13.9199 4.99919 9.14718C5.9989 7.7935 8.63853 5.26017 9.98632 4.36086C14.5694 1.30268 20.1714 0.0513859 25.2762 0.945621ZM17.9569 1.34183C15.5996 1.87002 14.5261 2.24666 12.4308 3.28026C10.4564 4.25412 8.9637 5.35008 7.1799 7.13536C4.03976 10.2781 2.34463 13.4694 1.37375 18.0663C1.02453 19.7195 1.05814 24.1171 1.4336 25.9169C2.04337 28.8391 3.4039 32.0098 4.91529 34.031C6.29205 35.8723 7.46986 37.1062 8.82778 38.1301C9.26613 38.4606 9.65738 38.7683 9.69722 38.8139C10.1077 39.2837 12.6245 40.6345 14.4067 41.3417C21.4152 44.1223 29.8025 42.6656 35.5256 37.6738C41.9934 32.0323 44.3976 23.0947 41.6189 15.0208C41.2788 14.0325 39.8017 10.96 39.6667 10.96C39.6014 10.96 39.5481 10.8878 39.5481 10.7995C39.5481 10.5779 37.6936 8.13155 36.9207 7.33347C36.391 6.78658 35.5494 6.05695 34.1644 4.94328C33.2405 4.2006 31.2739 3.12624 29.6944 2.50132C26.808 1.35924 25.2866 1.09413 21.7377 1.11443C19.8364 1.12531 18.5877 1.20043 17.9569 1.34183ZM25.5646 1.92368C26.2819 2.05203 27.5208 2.37385 28.3178 2.63866C29.7769 3.12363 32.4168 4.38986 32.9548 4.86279C33.1142 5.00289 33.6359 5.38228 34.1141 5.70598C35.1235 6.3892 37.3192 8.59753 38.2941 9.91016C38.6651 10.4096 38.9685 10.8492 38.9685 10.8869C38.9685 10.9248 39.1724 11.2873 39.4216 11.6927C40.0667 12.742 41.0544 15.0463 41.4212 16.3578C42.6923 20.9022 42.3148 26.0376 40.4129 30.0738C40.1764 30.5759 39.9828 31.0146 39.9828 31.0485C39.9828 31.2575 38.5401 33.4918 37.7577 34.4948C34.743 38.3582 29.8467 41.1953 24.9125 41.9379C23.5327 42.1456 19.9849 42.2471 19.7252 42.0864C19.6667 42.0503 19.1308 41.9527 18.5343 41.8696C16.7626 41.6229 14.395 40.8296 12.6281 39.891C9.14165 38.0387 6.64345 35.6661 4.3758 32.0536C3.43564 30.5557 2.38781 27.745 1.95961 25.5716C1.59169 23.7042 1.61836 19.7672 2.01149 17.9213C2.52504 15.5105 2.62995 15.2168 3.88804 12.6696C5.80052 8.79737 8.9853 5.65348 12.9624 3.71172C15.0502 2.69232 14.8671 2.7702 15.8575 2.4787C18.9645 1.56431 22.4441 1.36533 25.5646 1.92368ZM21.4901 2.14108C21.4314 2.23607 21.4602 2.33947 21.554 2.37065C21.6627 2.40691 21.7245 2.78746 21.7245 3.41862C21.7245 4.04978 21.6627 4.43033 21.554 4.46658C21.1781 4.59189 21.6351 4.86889 22.2178 4.86889C23.0136 4.86889 23.3408 4.52387 23.4201 3.60135C23.4647 3.08259 23.406 2.79384 23.1837 2.43969C22.9222 2.02274 22.8135 1.96835 22.2424 1.96835C21.8873 1.96835 21.5488 2.04608 21.4901 2.14108ZM19.2081 2.55977C19.1576 2.8127 19.1162 3.39019 19.1162 3.84282C19.1162 4.29545 19.0379 4.74416 18.9423 4.83988C18.8071 4.97519 18.872 5.01391 19.2349 5.01391C19.66 5.01391 19.6934 4.98186 19.6105 4.65135C19.534 4.34621 19.5705 4.28878 19.8407 4.28878C20.111 4.28878 20.1475 4.34621 20.071 4.65135C19.9996 4.93618 20.0351 5.01348 20.2365 5.01174C20.3775 5.01043 20.5906 4.94517 20.7102 4.86671C20.903 4.73996 20.903 4.7082 20.7109 4.58449C20.5916 4.50792 20.3308 3.9368 20.1313 3.3155C19.7274 2.0587 19.3672 1.76372 19.2081 2.55977ZM24.6886 2.61444C24.3914 2.91175 24.3329 3.11102 24.3329 3.82469C24.3329 4.77897 24.5876 5.15894 25.2275 5.15894C25.6238 5.15894 25.9189 4.8786 26.1887 4.24571C26.4449 3.64457 26.3994 3.0707 26.0612 2.64055C25.6812 2.15689 25.1556 2.14688 24.6886 2.61444ZM22.9691 2.91102C23.1329 3.56408 22.7844 4.43381 22.3589 4.43381C22.2098 4.43381 22.1593 4.19509 22.1593 3.49113C22.1593 2.58428 22.1729 2.54846 22.5188 2.54846C22.7813 2.54846 22.9028 2.64621 22.9691 2.91102ZM16.0731 2.8768C15.5493 3.11363 15.5396 3.13263 15.8326 3.34712C16.1462 3.57655 16.4073 4.4296 16.3983 5.1952C16.3948 5.49439 16.4083 5.73905 16.4283 5.73905C16.6271 5.73905 17.5053 5.3598 17.7034 5.18838C17.9771 4.95155 18.0484 4.21743 17.812 4.07124C17.7323 4.02193 17.6671 3.79438 17.6671 3.56539C17.6671 2.78935 16.9511 2.48 16.0731 2.8768ZM25.8466 3.25213C25.9548 3.7648 25.7545 4.44744 25.4394 4.64018C25.073 4.86439 24.5685 4.23816 24.696 3.71781C24.9391 2.72641 25.6728 2.42939 25.8466 3.25213ZM17.1843 3.62485C17.0669 3.93114 16.5631 3.91679 16.4431 3.60367C16.3005 3.23211 16.7848 2.90841 17.0645 3.18846C17.1786 3.3026 17.2325 3.49911 17.1843 3.62485ZM19.8386 3.67242C19.8397 3.77219 19.7755 3.8537 19.6958 3.8537C19.6161 3.8537 19.5519 3.67416 19.5531 3.45487C19.5548 3.14408 19.5864 3.10406 19.6958 3.27359C19.7731 3.39324 19.8373 3.57278 19.8386 3.67242ZM13.5835 3.78641C13.0441 4.07951 12.9647 4.46412 13.2934 5.19128C13.7258 6.14788 14.1382 6.51073 14.672 6.40385C15.2664 6.28478 15.3725 6.08871 15.3012 5.24044C15.2508 4.64148 15.1553 4.4457 14.7172 4.04397C14.1246 3.50027 14.1143 3.49795 13.5835 3.78641ZM14.6038 4.44541C14.9032 4.76708 15.0762 5.38011 14.9559 5.69365C14.8761 5.90177 14.3653 5.94542 14.0863 5.76805C13.9898 5.70656 13.8043 5.40128 13.6741 5.08947C13.4515 4.55606 13.4528 4.51125 13.6962 4.33316C14.0575 4.06863 14.2785 4.09604 14.6038 4.44541ZM17.6671 4.65135C17.6671 4.85844 17.2439 5.15894 16.9522 5.15894C16.7345 5.15894 16.7588 4.32692 16.9788 4.24788C17.2376 4.15506 17.6671 4.40669 17.6671 4.65135ZM30.8317 4.83263C30.6304 5.05205 30.3203 5.44348 30.1426 5.70279C29.965 5.9621 29.7208 6.17413 29.6001 6.17413C29.3068 6.17413 29.4172 6.46157 29.8111 6.7232C30.1049 6.91855 30.1291 6.9113 30.1291 6.6269C30.1291 6.41893 30.2203 6.31915 30.4104 6.31915C30.7964 6.31915 30.9137 6.5612 30.61 6.73132C30.3993 6.84937 30.3903 6.90738 30.5523 7.10273C30.8156 7.4202 31.1848 7.40482 31.085 7.08054C31.0419 6.94103 31.1677 6.36991 31.3643 5.81156C31.561 5.25321 31.7221 4.71487 31.7225 4.61509C31.7236 4.29545 31.2094 4.42104 30.8317 4.83263ZM11.0695 5.24596C10.224 5.68495 9.87387 6.17413 10.4052 6.17413C10.573 6.17413 10.7678 6.36237 10.9098 6.66171C11.0369 6.92986 11.2441 7.23514 11.3703 7.33985C11.5165 7.46138 11.569 7.65239 11.5151 7.86746C11.4176 8.25671 11.65 8.30776 12.0701 7.98928C12.3369 7.78726 12.3021 7.22978 12.0331 7.39612C11.841 7.5149 11.5355 7.08214 11.6328 6.82863C11.7603 6.4958 12.0988 6.56555 12.3705 6.98062C12.5329 7.22862 12.719 7.3371 12.9305 7.30693C13.3469 7.24762 13.3798 6.66997 12.9649 6.70667C12.6407 6.73538 12.1606 6.24621 12.1606 5.88712C12.1606 5.75369 12.0118 5.50468 11.83 5.3337C11.5199 5.04205 11.4726 5.03668 11.0695 5.24596ZM18.609 5.64463C14.7527 6.53495 12.4876 7.80727 9.79996 10.5927C7.7888 12.677 6.5097 15.1371 5.68808 18.5014C5.31204 20.0412 5.31653 23.4921 5.69677 25.1001C6.08425 26.7397 6.43565 27.7696 7.02021 28.98C8.57811 32.2056 10.9252 34.6507 14.0753 36.3301C16.4767 37.6103 18.1245 38.0577 20.8551 38.1708C23.5237 38.2813 25.1711 38.0903 27.0136 37.457C29.5194 36.5955 31.4352 35.4482 33.2247 33.7373C35.3802 31.6764 36.713 29.426 37.7933 26.0238C38.3216 24.3596 38.3712 19.6631 37.8781 17.9853C36.9268 14.7484 36.1187 13.2004 34.0822 10.713C33.5649 10.0811 31.4403 8.32096 30.5291 7.76913C27.9403 6.20168 25.3814 5.46263 22.2317 5.37242C20.335 5.31803 19.8735 5.3527 18.609 5.64463ZM31.0406 5.59402C30.9989 5.75355 30.8644 5.88407 30.7418 5.88407C30.5543 5.88407 30.5607 5.83795 30.7812 5.59402C30.9254 5.43449 31.0599 5.30397 31.0799 5.30397C31.1 5.30397 31.0822 5.43449 31.0406 5.59402ZM11.6969 5.76965C11.7209 5.89306 11.6322 6.10234 11.4997 6.23475C11.2754 6.45925 11.2461 6.45794 11.0688 6.21604C10.9092 5.99835 10.9159 5.91511 11.1105 5.69931C11.3738 5.40723 11.6326 5.43826 11.6969 5.76965ZM33.0513 5.7753C33.1381 6.20313 32.3145 7.27662 31.7249 7.50431L31.3642 7.64354L31.7249 7.92054C32.1281 8.23046 32.3946 8.21393 32.3371 7.88254C32.2678 7.48444 32.6776 7.28503 33.1947 7.46545C33.5995 7.6067 33.7002 7.58727 33.9947 7.31041C34.4594 6.87345 34.4174 6.56976 33.8192 6.04418C33.282 5.57212 32.9893 5.46959 33.0513 5.7753ZM23.5359 6.24693C24.6864 6.33119 26.301 6.68564 27.1586 7.04226C29.7441 8.11763 31.3958 9.20635 33.0448 10.9224C35.3038 13.2733 36.5636 15.645 37.2253 18.7915C37.7417 21.2484 37.5655 24.082 36.7262 26.8183C36.4942 27.5744 35.56 29.5031 35.3105 29.741C35.209 29.8377 35.1813 29.8377 35.2273 29.741C36.3231 27.4322 36.4713 27.049 36.9372 25.3206C37.3606 23.7499 37.3554 20.152 36.9273 18.4115C36.381 16.1905 35.2909 13.846 34.1584 12.4564C33.7102 11.9063 31.9093 10.1125 31.3141 9.62315C28.9619 7.6898 25.3361 6.46969 21.9419 6.4694C17.8765 6.46897 14.2173 7.90836 11.2272 10.684C9.6039 12.1907 7.85125 14.9992 7.20815 17.1237C6.25162 20.2839 6.29335 24.0308 7.31654 26.8412C7.51956 27.3991 7.72591 27.9862 7.77489 28.1457C7.93993 28.6829 9.09209 30.5222 9.88445 31.5132C11.5817 33.6361 13.5855 35.1437 16.0105 36.122C18.3544 37.0677 19.4044 37.2431 22.3917 37.1871C24.112 37.155 24.9138 37.1839 24.6573 37.2687C24.4391 37.3411 23.2171 37.4064 21.9419 37.4138C20.1779 37.4242 19.3634 37.3653 18.5366 37.1678C15.4376 36.4277 13.0898 35.1158 10.8452 32.8699C8.07991 30.1033 6.57607 26.9613 6.25858 23.2873C5.92051 19.3761 6.87342 15.865 9.14397 12.6552C11.1802 9.77688 14.2496 7.65833 17.8845 6.62255C18.8246 6.35469 21.5162 6.02199 22.0143 6.11206C22.1339 6.13366 22.8186 6.19443 23.5359 6.24693ZM33.7502 6.53481C33.9328 6.7551 33.8592 7.18931 33.6392 7.18931C33.5721 7.18931 33.3933 7.09853 33.2416 6.98744C33.0073 6.81602 32.9948 6.75061 33.1592 6.55236C33.3991 6.26303 33.5219 6.2594 33.7502 6.53481ZM8.4774 7.34333C7.9666 7.79219 7.76952 8.26788 8.1557 8.11966C8.37205 8.03656 9.69273 9.32208 9.69549 9.61851C9.6978 9.86071 9.78344 9.84722 10.1304 9.55006C10.5032 9.23042 10.4983 9.10628 10.1105 9.04856C9.63796 8.97808 9.44711 8.57911 9.74389 8.28209C10.1834 7.84223 9.96067 7.17322 9.31061 6.98048C9.08122 6.91246 8.85633 7.01035 8.4774 7.34333ZM24.4053 7.26429C25.0429 7.37002 25.9008 7.55188 26.3116 7.66863C28.015 8.15273 30.572 9.6539 32.1051 11.0701C32.8801 11.7859 34.7662 14.2006 34.7662 14.4768C34.7662 14.5639 34.8543 14.7384 34.9621 14.8643C35.2861 15.2429 36.0906 17.3368 36.3835 18.5636C36.7794 20.2221 36.7697 23.5495 36.3641 25.2288C35.0232 30.7804 30.7833 35.0043 25.2023 36.3487C23.5089 36.7565 20.2727 36.7652 18.609 36.3662C17.3734 36.0701 15.2815 35.2653 14.9024 34.9405C14.7767 34.8326 14.6057 34.7444 14.5225 34.7444C14.2657 34.7444 11.8639 32.885 11.1893 32.1639C10.8381 31.7885 10.3454 31.1876 10.0946 30.8287C9.84373 30.4697 9.56913 30.105 9.48436 30.0183C9.18889 29.7159 7.94182 27.0954 7.72373 26.3182C6.82879 23.1307 6.88747 19.9815 7.89762 16.9786C9.04543 13.5669 11.5832 10.6257 15.0588 8.67961C16.4563 7.89705 19.3327 7.11506 21.2174 7.00557C22.0339 6.958 23.059 7.04124 24.4053 7.26429ZM9.50421 7.56319C9.55246 7.68893 9.48523 7.89879 9.35481 8.02931C9.13513 8.24903 9.10006 8.24903 8.88038 8.02931C8.58419 7.73273 8.72012 7.33434 9.1176 7.33434C9.28207 7.33434 9.45595 7.43731 9.50421 7.56319ZM35.2009 7.70982C35.2009 8.02757 34.1839 9.07466 33.8754 9.07466C33.4639 9.07466 33.4165 9.35326 33.777 9.65405C34.1983 10.0054 34.3302 10.0141 34.3361 9.69103C34.3386 9.55137 34.4223 9.32991 34.522 9.19866C34.6795 8.99156 34.74 8.98678 34.9799 9.1624C35.62 9.63084 36.4612 9.21113 36.2874 8.50993C36.1098 7.79321 35.2009 7.12376 35.2009 7.70982ZM35.8581 8.76837C35.7439 9.12861 35.6434 9.14587 35.2667 8.87018C34.9912 8.66859 34.9912 8.66148 35.2655 8.35809C35.5059 8.0924 35.5719 8.07847 35.7495 8.25628C35.8752 8.38202 35.9175 8.58143 35.8581 8.76837ZM6.57476 9.31338C6.37943 9.52439 6.21945 9.75281 6.21945 9.82097C6.21945 9.88913 6.22003 9.99312 6.22075 10.052C6.22133 10.111 6.30292 10.16 6.40189 10.1608C6.71982 10.1635 7.94689 11.1689 7.95269 11.4313C7.95993 11.7582 8.14092 11.754 8.44305 11.4199C8.77373 11.0541 8.75084 10.7634 8.39842 10.8556C7.96863 10.9681 7.72562 10.5976 7.95167 10.1747C8.14324 9.81647 8.04267 9.22854 7.75764 9.04058C7.42827 8.82348 6.91993 8.94066 6.57476 9.31338ZM7.66852 9.73642C7.66852 10.0068 7.42522 10.1242 7.08759 10.0169C6.73836 9.90596 6.72329 9.75136 7.0318 9.4426C7.21149 9.26276 7.3106 9.24797 7.46652 9.37748C7.57767 9.46972 7.66852 9.63128 7.66852 9.73642ZM37.2115 9.58226C37.2015 9.62214 37.1853 9.70843 37.1753 9.77384C37.1215 10.1277 35.8182 11.0037 35.4781 10.9148C35.1442 10.8273 35.1014 11.1712 35.408 11.4779C35.7005 11.7709 35.9254 11.7349 35.9254 11.3951C35.9254 11.2356 35.9853 11.105 36.0585 11.105C36.1316 11.105 36.2941 11.0656 36.4196 11.0174C36.8555 10.8501 36.8672 11.399 36.4349 11.7439C36.1227 11.9932 36.0563 12.1373 36.1366 12.3907C36.2597 12.7789 36.7337 12.7485 36.7 12.3546C36.6723 12.0305 37.1416 11.5408 37.4832 11.5379C38.2263 11.5314 38.4303 10.7502 37.8781 10.0256C37.5236 9.56036 37.2606 9.38546 37.2115 9.58226ZM37.6353 10.4089C37.8756 10.6494 37.8539 11.105 37.6022 11.105C37.4884 11.105 37.2905 11.0002 37.1625 10.8721C36.9828 10.6923 36.9681 10.5931 37.0975 10.437C37.3028 10.1895 37.4104 10.1838 37.6353 10.4089ZM4.91717 11.6489C4.91818 11.7886 5.3074 12.2515 5.78212 12.6777C6.25669 13.1039 6.63084 13.4955 6.61345 13.5479C6.52434 13.8154 6.86574 13.7434 7.05774 13.454C7.26452 13.1424 7.25858 13.1147 6.96674 13.0384C6.63012 12.9502 6.54984 12.637 6.82111 12.4692C6.91283 12.4125 7.06629 12.4732 7.16207 12.6043C7.32162 12.8226 7.35828 12.8182 7.5981 12.5531C7.90936 12.2088 7.82546 12.0898 7.23902 12.0435C6.99963 12.0247 6.50984 11.8711 6.15091 11.7023C5.34624 11.3237 4.91456 11.305 4.91717 11.6489ZM6.36436 12.2653C6.36436 12.345 6.30306 12.4103 6.228 12.4103C6.15294 12.4103 6.05136 12.345 6.00209 12.2653C5.95282 12.1855 6.01426 12.1202 6.13845 12.1202C6.26263 12.1202 6.36436 12.1855 6.36436 12.2653ZM37.8624 12.6847C36.9563 13.2452 36.7174 13.928 37.2432 14.4543C37.6113 14.8227 38.3457 14.7412 39.0692 14.2517C39.754 13.7883 39.9246 13.321 39.5787 12.8555C39.2212 12.374 38.4832 12.3006 37.8624 12.6847ZM39.1947 13.1631C39.4028 13.8192 37.8121 14.705 37.5683 14.0688C37.4422 13.74 37.7543 13.1482 38.1341 12.9953C38.7107 12.7634 39.0867 12.823 39.1947 13.1631ZM40.2727 15.0646C40.2727 15.2972 38.9404 15.7933 38.36 15.7768C37.9569 15.7653 37.9402 15.7882 38.0343 16.2267C38.0888 16.4807 38.1892 16.7953 38.2573 16.9257C38.4454 17.2855 39.0865 17.3922 39.486 17.1303C39.6739 17.007 39.9884 16.9061 40.1847 16.9061C40.5575 16.9061 40.9972 16.5696 40.9972 16.2842C40.9972 15.9836 40.5258 14.8757 40.3979 14.8757C40.329 14.8757 40.2727 14.9607 40.2727 15.0646ZM40.4176 16.0999C40.4176 16.5769 40.2199 16.6683 39.9156 16.3317C39.627 16.0126 39.7275 15.7459 40.1363 15.7459C40.3379 15.7459 40.4176 15.8461 40.4176 16.0999ZM39.3308 16.4731C39.3308 16.9778 38.7298 17.068 38.5509 16.59C38.4554 16.3347 38.4818 16.2293 38.6606 16.1533C39.0769 15.9759 39.3308 16.097 39.3308 16.4731ZM38.5896 18.5271C38.6949 19.0541 38.8337 19.2368 38.9279 18.9727C39.0353 18.672 39.4032 18.7693 39.4032 19.0985C39.4032 19.334 39.3358 19.3878 39.1134 19.3295C38.8873 19.2703 38.8236 19.3252 38.8236 19.5785C38.8236 20.0016 38.9717 20.1402 39.1715 19.9038C39.2592 19.8003 39.8035 19.5655 40.3813 19.3822C41.1753 19.1302 41.4319 18.9848 41.4319 18.7867C41.4319 18.4717 40.9552 18.3464 39.8643 18.3748C39.4405 18.3857 39.0199 18.3208 38.9297 18.2305C38.6351 17.9357 38.4957 18.0572 38.5896 18.5271ZM40.4176 18.9365C40.134 19.1198 39.8379 19.1198 39.8379 18.9365C39.8379 18.8567 40.0173 18.7925 40.2364 18.7936C40.547 18.7954 40.587 18.827 40.4176 18.9365ZM2.33434 19.8123C1.91252 20.2056 1.93367 20.6928 2.39115 21.1229C2.69154 21.4053 2.9189 21.4745 3.54707 21.4745C4.20017 21.4745 4.39246 21.4109 4.71386 21.0894C5.47231 20.3303 4.7698 19.5166 3.35579 19.5166C2.84717 19.5166 2.5633 19.5988 2.33434 19.8123ZM4.38391 20.2658C4.72285 20.8037 3.96962 21.2215 3.08685 20.9853C2.74747 20.8945 2.66922 20.7941 2.66922 20.4503C2.66922 20.0948 2.73878 20.014 3.10394 19.9454C3.66024 19.8412 4.20162 19.9766 4.38391 20.2658ZM41.3179 20.7617C41.2014 20.9698 41.0107 20.9966 40.0744 20.9364L38.9685 20.8653V21.4737C38.9685 22.4509 39.8168 22.9281 40.9113 22.5667C41.539 22.3593 41.8666 21.93 41.8666 21.3149C41.8666 20.7444 41.5219 20.3968 41.3179 20.7617ZM41.287 21.6092C41.287 21.9778 40.8452 22.2721 40.2914 22.2721C39.7009 22.2721 39.4032 22.0679 39.4032 21.663C39.4032 21.4383 39.5346 21.4019 40.3451 21.4019C41.0649 21.4019 41.287 21.4508 41.287 21.6092ZM2.39912 22.7994C2.1435 23.0552 2.01714 23.3373 2.01714 23.6519C2.01714 24.1823 2.39622 24.6273 2.58605 24.3199C2.64763 24.22 3.08293 24.0852 3.55316 24.0204C4.23451 23.9266 4.4326 23.9448 4.52853 24.1106C4.62228 24.2726 4.6943 24.2809 4.85457 24.1477C5.15293 23.8999 5.10656 23.2404 4.7598 22.7993C4.49723 22.465 4.35435 22.4171 3.62039 22.4171C2.90687 22.4171 2.724 22.4744 2.39912 22.7994ZM4.15843 22.933C4.55026 23.2075 4.5804 23.5773 4.21104 23.5773C4.06265 23.5773 3.6388 23.6188 3.26914 23.6696C2.62082 23.7585 2.59677 23.7486 2.59677 23.3916C2.59677 23.1198 2.7027 22.9827 2.99526 22.8757C3.56721 22.6667 3.79457 22.6779 4.15843 22.933ZM39.0188 23.7904C38.5826 24.0963 38.5154 24.5299 38.8398 24.9429C39.3812 25.6316 40.7443 25.7802 41.3118 25.2122C41.5461 24.9777 41.5739 24.8395 41.469 24.4336C41.3927 24.1387 41.1991 23.8678 40.9881 23.7608C40.5035 23.515 39.3879 23.5318 39.0188 23.7904ZM40.5293 24.0226C41.0459 24.2028 41.1509 24.3936 40.9828 24.8463C40.7546 25.4608 39.1134 25.1702 39.1134 24.5152C39.1134 24.3232 39.6658 23.8874 39.925 23.8749C40.0127 23.8709 40.2847 23.9372 40.5293 24.0226ZM4.77038 25.0159C4.77038 25.1024 4.27653 25.4015 3.673 25.6805C2.83992 26.0656 2.58778 26.249 2.62618 26.4416C2.6698 26.6593 2.85137 26.6954 3.90485 26.6954C4.58011 26.6954 5.21423 26.7482 5.31378 26.8127C5.53056 26.9531 5.56461 26.3775 5.35885 26.0521C5.24698 25.8751 5.19119 25.8738 4.98774 26.0428C4.78472 26.2115 4.72937 26.211 4.62402 26.0403C4.4468 25.7533 4.60084 25.5803 4.93833 25.6876C5.18525 25.7659 5.22003 25.7213 5.17974 25.3783C5.1354 25.0008 4.77038 24.6775 4.77038 25.0159ZM4.19075 26.0428C4.19075 26.1226 4.07656 26.1868 3.93716 26.1857C3.72038 26.1838 3.71516 26.1629 3.90093 26.0428C4.17437 25.8659 4.19075 25.8659 4.19075 26.0428ZM4.57301 27.8556C4.52722 27.9753 4.33464 28.0732 4.14525 28.0732C3.75864 28.0732 3.32131 28.4808 3.32131 28.8411C3.32131 29.1545 3.77718 30.1036 3.92774 30.1036C3.99266 30.1036 4.04584 30.0147 4.04584 29.9062C4.04584 29.6837 5.47926 29.0884 6.01499 29.0884C6.20713 29.0884 6.36436 29.0199 6.36436 28.9361C6.36436 28.7117 5.91471 27.8725 5.72822 27.749C5.43724 27.5564 4.66039 27.6281 4.57301 27.8556ZM5.63475 28.2086C5.83834 28.5896 5.83052 28.6186 5.47013 28.8115C5.21061 28.9506 5.12294 28.9352 4.96861 28.7241C4.83675 28.5436 4.82414 28.3886 4.92601 28.1982C5.11308 27.8484 5.44463 27.8533 5.63475 28.2086ZM4.45694 28.8552C4.51592 29.1615 4.24234 29.3891 3.95035 29.2769C3.74472 29.198 3.68633 28.7713 3.85761 28.5999C4.03744 28.4201 4.40318 28.5758 4.45694 28.8552ZM37.3796 28.9338C37.1558 29.3522 37.1964 29.5234 37.5194 29.5234C37.8362 29.5234 37.8749 29.6302 37.6732 29.9492C37.5603 30.1278 37.5068 30.1286 37.2974 29.9546C37.0851 29.7783 37.027 29.7878 36.8517 30.028C36.5804 30.3993 36.5972 30.59 36.8912 30.477C37.024 30.4261 37.6071 30.5254 38.1872 30.6977C39.8882 31.2031 40.1491 30.9047 38.8598 29.9279C38.4015 29.5809 37.9623 29.152 37.8836 28.9751C37.7077 28.5795 37.5749 28.5686 37.3796 28.9338ZM34.978 30.3573C33.9067 32.0253 32.0892 33.8432 30.3827 34.9535C29.6934 35.4021 29.9505 35.0713 30.6726 34.5808C31.6759 33.899 33.8382 31.7574 34.4972 30.7924C35.0648 29.9613 35.4649 29.5993 34.978 30.3573ZM5.69938 30.3778C5.19148 30.6877 4.62547 31.3531 4.62547 31.6403C4.62547 31.9815 5.2422 32.424 5.71793 32.424C5.99716 32.424 6.41073 32.2537 6.77734 31.988C7.30785 31.6033 7.37871 31.4844 7.37871 30.9779C7.37871 30.5588 7.30307 30.3633 7.09846 30.2537C6.67997 30.0296 6.20032 30.0721 5.69938 30.3778ZM38.6062 30.2486C38.6555 30.3283 38.598 30.3936 38.4784 30.3936C38.3589 30.3936 38.2208 30.3283 38.1715 30.2486C38.1222 30.1688 38.1798 30.1036 38.2993 30.1036C38.4189 30.1036 38.557 30.1688 38.6062 30.2486ZM6.91457 30.9129C6.98717 31.4213 6.49521 31.8758 5.84921 31.8974C5.37 31.9133 5.27045 31.8666 5.23379 31.6094C5.17322 31.1843 5.98963 30.5088 6.49333 30.5672C6.74778 30.5968 6.88559 30.7099 6.91457 30.9129ZM36.0763 31.33C35.7371 31.6913 35.796 32.0697 36.1692 31.9262C36.4942 31.8015 36.9502 32.1735 36.7875 32.4309C36.5987 32.7297 36.6187 33.3498 36.8239 33.5552C37.2131 33.9447 37.8147 33.7044 38.2822 32.9729C38.5952 32.4832 38.5951 32.4386 38.2802 32.4563C37.8976 32.4778 36.481 31.5355 36.5653 31.3157C36.6978 30.9702 36.4058 30.9788 36.0763 31.33ZM7.81343 32.1473C7.65345 32.2604 7.64302 32.3201 7.77358 32.3734C8.06238 32.4911 7.38277 33.2941 6.99427 33.2941C6.66837 33.2941 6.36436 33.6632 6.36436 34.0589C6.36436 34.2924 7.2067 35.3245 7.39711 35.3245C7.46667 35.3245 7.52362 35.1995 7.52362 35.0468C7.52362 34.651 8.95211 33.5316 9.1973 33.7353C9.54768 34.0262 9.59492 33.5758 9.25236 33.2109C8.85618 32.7887 8.68287 32.7645 8.68287 33.1314C8.68287 33.4793 8.31698 33.7867 8.03267 33.6774C7.72634 33.5598 7.75952 33.2598 8.11252 32.9572C8.61143 32.5297 8.33423 31.779 7.81343 32.1473ZM37.6164 32.6453C37.8947 32.9239 37.7642 33.2941 37.3876 33.2941C37.0191 33.2941 36.9444 33.1545 37.097 32.7503C37.2425 32.3651 37.3206 32.3493 37.6164 32.6453ZM34.5571 33.3265C34.246 33.7708 34.2726 33.8742 34.6982 33.8742C35.1757 33.8742 35.2857 34.1901 34.974 34.6661C34.3523 35.6156 35.5869 36.2079 36.4055 35.3528C36.8185 34.9213 36.9278 34.5173 36.5971 34.6443C36.3281 34.7476 35.056 33.6197 35.056 33.278C35.056 32.9104 34.8331 32.932 34.5571 33.3265ZM7.66012 33.9366C7.79793 34.1028 7.77068 34.1769 7.52376 34.3093C7.18048 34.4931 6.79908 34.2929 6.79908 33.9291C6.79908 33.6647 7.43928 33.6703 7.66012 33.9366ZM35.9604 34.8002C36.1995 34.982 36.1989 35.0044 35.9489 35.2307C35.4709 35.6637 35.0559 35.4317 35.3442 34.8925C35.5262 34.5521 35.6161 34.5386 35.9604 34.8002ZM10.4218 35.0168C10.4218 35.5102 10.0746 35.6505 9.56232 35.3641C9.10368 35.1074 9.10224 35.1077 8.74794 35.5139C8.55275 35.7377 8.39306 35.9802 8.39306 36.0527C8.39306 36.286 9.28511 37.2099 9.51044 37.2099C9.63883 37.2099 9.69592 37.1255 9.64941 37.0042C9.60608 36.8912 9.73447 36.6138 9.93473 36.3879C10.135 36.162 10.3992 35.8304 10.5219 35.6508C10.6445 35.4713 10.8678 35.3245 11.0181 35.3245C11.3592 35.3245 11.3658 35.1957 11.0376 34.9463C10.6758 34.6715 10.4218 34.7005 10.4218 35.0168ZM32.7627 35.08C32.3765 35.4916 32.3665 35.6146 32.7198 35.6146C33.138 35.6146 33.3975 35.9954 33.168 36.2723C33.0057 36.4679 32.9317 36.4419 32.5561 36.0575C32.2038 35.6968 32.0789 35.6468 31.8447 35.7721C31.4898 35.9622 31.5576 36.4092 31.9432 36.4212C32.4387 36.4366 32.7375 36.6488 32.7375 36.9854C32.7375 37.3739 33.1592 37.7914 33.5459 37.7861C33.9311 37.7807 34.8368 37.0064 34.7058 36.7944C34.6484 36.7013 34.5446 36.6601 34.4754 36.7029C34.4061 36.7458 34.2313 36.6122 34.0869 36.4061C33.9424 36.2 33.6707 35.8385 33.4829 35.6025C33.2057 35.2542 33.175 35.1334 33.3196 34.959C33.6266 34.5886 33.1208 34.6987 32.7627 35.08ZM29.8393 35.2411C29.8393 35.3654 28.181 36.1973 28.0345 36.1465C27.9512 36.1177 28.3069 35.8911 28.825 35.6428C29.8669 35.1438 29.8393 35.1547 29.8393 35.2411ZM9.47523 35.8108C9.71838 35.9887 9.72302 36.0362 9.52551 36.3185C9.30931 36.6274 9.30554 36.6276 9.05007 36.3452C8.90849 36.1886 8.83111 35.9602 8.87806 35.8375C8.98327 35.5631 9.12788 35.5567 9.47523 35.8108ZM12.4234 36.666C12.3783 37.1337 12.3728 37.1369 11.6835 37.0885C10.4347 37.0007 10.1577 37.7315 11.1437 38.5131C11.6604 38.9226 12.1569 39.0059 11.9344 38.6458C11.8074 38.44 12.5504 37.246 12.9817 36.9632L13.3547 36.7187L13.0314 36.4566C12.5793 36.0903 12.4754 36.1259 12.4234 36.666ZM27.7309 36.3207C27.5252 36.5091 25.7702 37.0667 25.4278 37.0525C25.2639 37.0457 25.6515 36.8592 26.2891 36.638C27.5282 36.2083 27.9568 36.1139 27.7309 36.3207ZM34.0416 36.9578C34.0416 37.178 33.574 37.4782 33.3594 37.3958C33.1055 37.2982 33.1241 37.0683 33.4116 36.7504C33.5934 36.5493 33.6978 36.5248 33.8463 36.648C33.9537 36.7372 34.0416 36.8767 34.0416 36.9578ZM29.845 36.9472C29.494 37.3241 29.4776 37.5824 29.7615 38.2625C29.978 38.7809 30.7381 39.5303 31.0474 39.5303C31.2936 39.5303 32.0129 38.8307 32.0129 38.5912C32.0129 37.8705 31.036 36.6298 30.4687 36.6298C30.2881 36.6298 30.0074 36.7726 29.845 36.9472ZM13.8153 37.4637C13.8088 37.6829 13.6977 38.2401 13.5683 38.7016C13.3258 39.5664 13.3605 39.9654 13.678 39.9654C13.8446 39.9654 14.1754 39.5354 14.8216 38.4788C14.9558 38.2596 15.1579 38.08 15.2709 38.08C15.5708 38.08 15.7084 37.7784 15.4758 37.631C15.1447 37.421 14.7277 37.4731 14.8196 37.7128C14.9204 37.9756 14.7274 38.1106 14.4198 37.9924C14.1509 37.8892 14.1123 37.5498 14.3599 37.4671C14.5994 37.3872 14.3687 37.0648 14.0721 37.0648C13.9043 37.0648 13.8233 37.1904 13.8153 37.4637ZM31.14 37.601C31.5191 38.0834 31.4927 38.8503 31.0944 38.9258C30.5643 39.0265 29.7756 37.8101 30.0658 37.34C30.2323 37.0705 30.8391 37.218 31.14 37.601ZM11.732 37.5797C11.8859 37.7655 11.8765 37.8465 11.6772 38.0458C11.4603 38.2629 11.4138 38.2648 11.2134 38.0644C10.9688 37.8196 11.0657 37.3549 11.3615 37.3549C11.4626 37.3549 11.6294 37.4561 11.732 37.5797ZM27.9555 37.7473C27.2084 38.0207 26.8237 38.9867 27.3035 39.3853C27.423 39.4846 27.5208 39.7109 27.5208 39.8881C27.5208 40.2624 27.9363 40.6911 28.2481 40.6384C28.5799 40.5823 29.5495 40.2396 29.5495 40.1783C29.5495 40.1483 29.3906 39.9644 29.1961 39.7699C28.969 39.5426 28.7775 39.0996 28.6599 38.5306C28.4818 37.6674 28.4056 37.5827 27.9555 37.7473ZM28.3156 38.9537C28.1719 39.1864 27.5192 39.1146 27.4197 38.855C27.3603 38.7003 27.4489 38.5166 27.6689 38.3383C28.009 38.0628 28.011 38.0632 28.2067 38.4368C28.3148 38.6432 28.3637 38.8758 28.3156 38.9537ZM14.1894 38.6601C14.104 38.8197 14.0101 38.9502 13.9804 38.9502C13.9508 38.9502 13.9608 38.8197 14.0024 38.6601C14.0442 38.5006 14.1382 38.3701 14.2114 38.3701C14.2848 38.3701 14.275 38.4999 14.1894 38.6601ZM25.4097 38.6764C25.3549 38.765 25.3994 38.8929 25.5086 38.9603C25.6605 39.0543 25.6672 39.1231 25.5369 39.2534C25.2788 39.5117 24.9212 39.3107 25.0131 38.959C25.0772 38.7134 25.0236 38.6601 24.7121 38.6601C24.336 38.6601 24.1664 39.0154 24.4908 39.1238C24.5776 39.1526 24.8064 39.6278 24.9991 40.1794C25.5823 41.8481 25.9952 41.8339 26.0086 40.1449C26.0145 39.4048 26.0878 38.888 26.2075 38.7437C26.373 38.5441 26.3408 38.5151 25.9531 38.5151C25.709 38.5151 25.4644 38.5876 25.4097 38.6764ZM19.3334 39.0365C18.6899 39.7314 18.7219 41.4271 19.3817 41.5943C19.8396 41.7105 20.5128 41.4287 20.686 41.0484C21.0274 40.2984 20.8419 39.2717 20.2881 38.8461C19.9397 38.5785 19.7164 38.623 19.3334 39.0365ZM22.6067 38.9197C21.8991 39.0347 21.5948 39.815 21.8655 40.8209C22.0468 41.4947 22.4349 41.7728 23.1555 41.7457C23.8 41.7215 24.0439 41.4818 23.6886 41.2219C23.4589 41.0537 23.432 40.877 23.4924 39.9342C23.5692 38.737 23.5893 38.7601 22.6067 38.9197ZM20.3383 39.7014C20.4776 40.0331 20.4921 40.2773 20.3895 40.5719C20.2117 41.0822 20.0633 41.1765 19.6151 41.064C19.3014 40.9852 19.2611 40.896 19.2611 40.2817C19.2611 39.9003 19.3394 39.51 19.435 39.4143C19.7513 39.0977 20.1361 39.2199 20.3383 39.7014ZM23.0287 40.2469C23.0287 40.7208 22.9594 41.1514 22.8747 41.2038C22.5876 41.3813 22.1593 40.8174 22.1593 40.262C22.1593 39.6823 22.3655 39.3853 22.7679 39.3853C22.9897 39.3853 23.0287 39.5139 23.0287 40.2469ZM28.6528 39.8588C28.7151 40.1819 28.308 40.3429 28.0244 40.1074C27.8557 39.9673 27.845 39.8811 27.9767 39.7223C28.1971 39.4566 28.5908 39.5359 28.6528 39.8588ZM25.6349 40.0741C25.6331 40.3849 25.6015 40.425 25.4921 40.2554C25.309 39.9716 25.309 39.6753 25.4921 39.6753C25.5718 39.6753 25.636 39.8549 25.6349 40.0741Z" fill="#C69512"/>
<defs>
<linearGradient id="paint0_linear" x1="14.53" y1="19.9167" x2="30.3649" y2="19.9167" gradientUnits="userSpaceOnUse">
<stop stop-color="#C69512"/>
<stop offset="1" stop-color="#F2C94C"/>
<stop offset="1" stop-color="#F2C94C"/>
</linearGradient>
<linearGradient id="paint1_linear" x1="0" y1="21.875" x2="43.75" y2="21.875" gradientUnits="userSpaceOnUse">
<stop stop-color="#C69512"/>
<stop offset="1" stop-color="#F2C94C"/>
<stop offset="1" stop-color="#F2C94C"/>
</linearGradient>
</defs>
</svg>
