 <svg width="14" height="12" viewBox="0 0 14 12" fill="none" xmlns="http://www.w3.org/2000/svg">
            <path d="M3.24987 6.73779H0.74986C0.628275 6.73779 0.528536 6.78904 0.450367 6.89166C0.372427 6.99427 0.333252 7.12554 0.333252 7.28528V10.5712C0.333252 10.7309 0.372245 10.8622 0.450367 10.9645C0.528536 11.0675 0.628458 11.1186 0.74986 11.1186H3.24987C3.37132 11.1186 3.4712 11.0674 3.54937 10.9645C3.62744 10.8622 3.66648 10.7309 3.66648 10.5712V7.28528C3.66648 7.12554 3.62744 6.99463 3.54937 6.89172C3.4712 6.7891 3.37132 6.73779 3.24987 6.73779Z" fill="#FFE835"/>
            <path d="M13.25 0.166504H10.75C10.6283 0.166504 10.5286 0.217753 10.4505 0.320309C10.3724 0.422865 10.3333 0.554133 10.3333 0.713691V10.5711C10.3333 10.7308 10.3723 10.8621 10.4505 10.9644C10.5286 11.0674 10.6283 11.1185 10.75 11.1185H13.25C13.3715 11.1185 13.4714 11.0674 13.5493 10.9644C13.6273 10.8621 13.6666 10.7308 13.6666 10.5711V0.71375C13.6666 0.554191 13.6273 0.422865 13.5493 0.320369C13.4714 0.217813 13.3715 0.166504 13.25 0.166504Z" fill="#FFE835"/>
            <path d="M8.24988 4.54736H5.74986C5.62823 4.54736 5.52849 4.59861 5.45037 4.70117C5.37234 4.80372 5.33325 4.93499 5.33325 5.09455V10.5705C5.33325 10.7305 5.3722 10.8617 5.45037 10.9643C5.52849 11.0668 5.62818 11.1181 5.74986 11.1181H8.24988C8.37132 11.1181 8.4712 11.0668 8.54937 10.9643C8.62731 10.8617 8.66648 10.7305 8.66648 10.5705V5.09455C8.66648 4.93499 8.62731 4.80366 8.54937 4.70117C8.4712 4.59867 8.37128 4.54736 8.24988 4.54736Z" fill="#FFE835"/>
            </svg>