 <svg width="15" height="12" viewBox="0 0 15 12" fill="none" xmlns="http://www.w3.org/2000/svg">
            <path d="M3.74987 6.73779H1.24986C1.12828 6.73779 1.02854 6.78904 0.950367 6.89166C0.872427 6.99427 0.833252 7.12554 0.833252 7.28528V10.5712C0.833252 10.7309 0.872245 10.8622 0.950367 10.9645C1.02854 11.0675 1.12846 11.1186 1.24986 11.1186H3.74987C3.87132 11.1186 3.9712 11.0674 4.04937 10.9645C4.12744 10.8622 4.16648 10.7309 4.16648 10.5712V7.28528C4.16648 7.12554 4.12744 6.99463 4.04937 6.89172C3.9712 6.7891 3.87132 6.73779 3.74987 6.73779Z" fill="#2280ED"/>
            <path d="M13.75 0.166504H11.25C11.1283 0.166504 11.0286 0.217753 10.9505 0.320309C10.8724 0.422865 10.8333 0.554133 10.8333 0.713691V10.5711C10.8333 10.7308 10.8723 10.8621 10.9505 10.9644C11.0286 11.0674 11.1283 11.1185 11.25 11.1185H13.75C13.8715 11.1185 13.9714 11.0674 14.0493 10.9644C14.1273 10.8621 14.1666 10.7308 14.1666 10.5711V0.71375C14.1666 0.554191 14.1273 0.422865 14.0493 0.320369C13.9714 0.217813 13.8715 0.166504 13.75 0.166504Z" fill="#2280ED"/>
            <path d="M8.74988 4.54736H6.24986C6.12823 4.54736 6.02849 4.59861 5.95037 4.70117C5.87234 4.80372 5.83325 4.93499 5.83325 5.09455V10.5705C5.83325 10.7305 5.8722 10.8617 5.95037 10.9643C6.02849 11.0668 6.12818 11.1181 6.24986 11.1181H8.74988C8.87132 11.1181 8.9712 11.0668 9.04937 10.9643C9.12731 10.8617 9.16648 10.7305 9.16648 10.5705V5.09455C9.16648 4.93499 9.12731 4.80366 9.04937 4.70117C8.9712 4.59867 8.87128 4.54736 8.74988 4.54736Z" fill="#2280ED"/>
            </svg>